<svg width="35" height="36" viewBox="0 0 35 36" fill="none" xmlns="http://www.w3.org/2000/svg">
<path d="M10.573 10.7083C10.573 6.8875 13.6792 3.78125 17.5 3.78125C21.3209 3.78125 24.4271 6.8875 24.4271 10.7083C24.4271 14.5292 21.3209 17.6354 17.5 17.6354C13.6792 17.6354 10.573 14.5292 10.573 10.7083ZM22.9688 30.0312H21.875C20.0667 30.0312 18.5938 28.5583 18.5938 26.75C18.5938 24.9417 20.0667 23.4688 21.875 23.4688H22.9688V22.375C22.9688 21.4854 23.3188 20.6833 23.9021 20.0854C23.2459 19.9104 22.575 19.8229 21.875 19.8229H13.125C8.50212 19.8229 4.73962 23.5854 4.73962 28.2083C4.73962 30.425 6.53337 32.2188 8.75004 32.2188H23.1584C23.0417 31.8833 22.9688 31.5042 22.9688 31.125V30.0312ZM29.5313 30.5125C29.6334 30.3521 29.7355 30.2063 29.823 30.0312H29.5313V30.5125ZM30.625 25.6562H27.3438V22.375C27.3438 21.7712 26.8538 21.2812 26.25 21.2812C25.6463 21.2812 25.1563 21.7712 25.1563 22.375V25.6562H21.875C21.2713 25.6562 20.7813 26.1462 20.7813 26.75C20.7813 27.3538 21.2713 27.8438 21.875 27.8438H25.1563V31.125C25.1563 31.7288 25.6463 32.2188 26.25 32.2188C26.8538 32.2188 27.3438 31.7288 27.3438 31.125V27.8438H30.625C31.2288 27.8438 31.7188 27.3538 31.7188 26.75C31.7188 26.1462 31.2288 25.6562 30.625 25.6562Z"/>
</svg>
