<svg width="15" height="15" viewBox="0 0 15 15" fill="none" xmlns="http://www.w3.org/2000/svg">
<path d="M6.39756 2.03125C5.74653 2.03125 5.15139 2.39907 4.86024 2.98135L4.61373 3.47439C4.48139 3.73906 4.21087 3.90625 3.91496 3.90625H3.125C2.17576 3.90625 1.40625 4.67576 1.40625 5.625V11.25C1.40625 12.1993 2.17576 12.9688 3.125 12.9688H11.875C12.8243 12.9688 13.5938 12.1993 13.5938 11.25V5.625C13.5938 4.67576 12.8243 3.90625 11.875 3.90625H11.0851C10.7891 3.90625 10.5186 3.73906 10.3862 3.47439L10.1398 2.98135C9.84863 2.39907 9.2535 2.03125 8.60244 2.03125H6.39756Z"  fill-opacity="0.7"/>
<path fill-rule="evenodd" clip-rule="evenodd" d="M7.5 4.53125C7.75888 4.53125 7.96875 4.74112 7.96875 5V10C7.96875 10.2589 7.75888 10.4688 7.5 10.4688C7.24112 10.4688 7.03125 10.2589 7.03125 10V5C7.03125 4.74112 7.24112 4.53125 7.5 4.53125Z" fill="#ECEFF1"/>
<path fill-rule="evenodd" clip-rule="evenodd" d="M4.53125 7.5C4.53125 7.24112 4.74112 7.03125 5 7.03125H10C10.2589 7.03125 10.4688 7.24112 10.4688 7.5C10.4688 7.75888 10.2589 7.96875 10 7.96875H5C4.74112 7.96875 4.53125 7.75888 4.53125 7.5Z" fill="#ECEFF1"/>
</svg>
