<svg width="20" height="20" viewBox="0 0 20 20" fill="none" xmlns="http://www.w3.org/2000/svg">
<path d="M8.66085 12.4063L6.70835 10.4538L5.73668 11.4255L8.65168 14.3405L14.1517 8.8405L13.18 7.86884L8.66085 12.4063ZM14.8914 0.746338L19.1145 4.27092L17.9412 5.678L13.7154 2.15525L14.8914 0.746338ZM5.10693 0.746338L6.2821 2.15434L2.0581 5.678L0.884766 4.27L5.10693 0.746338ZM9.99918 2.75384C5.44335 2.75384 1.74918 6.44801 1.74918 11.0038C1.74918 15.5597 5.44335 19.2538 9.99918 19.2538C14.555 19.2538 18.2492 15.5597 18.2492 11.0038C18.2492 6.44801 14.555 2.75384 9.99918 2.75384ZM9.99918 17.4205C6.46085 17.4205 3.58252 14.5422 3.58252 11.0038C3.58252 7.4655 6.46085 4.58717 9.99918 4.58717C13.5375 4.58717 16.4158 7.4655 16.4158 11.0038C16.4158 14.5422 13.5375 17.4205 9.99918 17.4205Z" fill="black" fill-opacity="0.5"/>
</svg>
