<svg width="15" height="15" viewBox="0 0 15 15" fill="none" xmlns="http://www.w3.org/2000/svg">
<path d="M1.2 3.44063C1.2 3.82969 1.51406 4.14375 1.90312 4.14375H2.27812V12.45C2.27812 13.7297 3.31406 14.7656 4.58906 14.7656H10.4109C11.6859 14.7656 12.7219 13.7297 12.7219 12.45V4.14375H13.0969C13.4859 4.14375 13.8 3.82969 13.8 3.44063C13.8 3.05156 13.4859 2.7375 13.0969 2.7375H10.6359V2.01094C10.6359 1.03125 9.83906 0.234375 8.85937 0.234375H6.14062C5.16093 0.234375 4.36406 1.03125 4.36406 2.01094V2.7375H1.90312C1.51406 2.7375 1.2 3.05156 1.2 3.44063ZM9.95156 6.14063V11.3625C9.95156 11.7516 9.6375 12.0656 9.24843 12.0656C8.85937 12.0656 8.54531 11.7516 8.54531 11.3625V6.14063C8.54531 5.75156 8.85937 5.4375 9.24843 5.4375C9.6375 5.4375 9.95156 5.75156 9.95156 6.14063ZM5.77031 2.01094C5.77031 1.80469 5.93437 1.64062 6.14062 1.64062H8.85937C9.06562 1.64062 9.22968 1.80469 9.22968 2.01094V2.7375H5.77031V2.01094ZM5.04843 6.14063C5.04843 5.75156 5.3625 5.4375 5.75156 5.4375C6.14062 5.4375 6.45468 5.75156 6.45468 6.14063V11.3625C6.45468 11.7516 6.14062 12.0656 5.75156 12.0656C5.3625 12.0656 5.04843 11.7516 5.04843 11.3625V6.14063Z"  fill-opacity="0.7"/>
</svg>
