<svg width="15" height="20" viewBox="0 0 15 20" fill="none" xmlns="http://www.w3.org/2000/svg">
<path d="M13.6509 7.14544L13.3509 16.2257C13.3253 17.0034 12.9977 17.7405 12.4376 18.2806C11.8775 18.8206 11.129 19.1212 10.3509 19.1184H4.65088C3.87329 19.1212 3.12519 18.8211 2.56516 18.2816C2.00513 17.7422 1.67719 17.0058 1.65087 16.2287L1.35088 7.14544C1.34431 6.94653 1.41703 6.75316 1.55304 6.60787C1.68906 6.46257 1.87721 6.37726 2.07613 6.3707C2.27504 6.36413 2.46841 6.43685 2.6137 6.57286C2.759 6.70887 2.84431 6.89703 2.85088 7.09594L3.15087 16.1784C3.16581 16.5662 3.33042 16.933 3.61012 17.202C3.88982 17.4709 4.26286 17.621 4.65088 17.6207H10.3509C10.7394 17.621 11.1129 17.4705 11.3926 17.2009C11.6724 16.9313 11.8367 16.5637 11.8509 16.1754L12.1509 7.09594C12.1574 6.89703 12.2428 6.70887 12.388 6.57286C12.5333 6.43685 12.7267 6.36413 12.9256 6.3707C13.1245 6.37726 13.3127 6.46257 13.4487 6.60787C13.5847 6.75316 13.6574 6.94653 13.6509 7.14544ZM14.6431 4.12369C14.6431 4.32261 14.5641 4.51337 14.4235 4.65403C14.2828 4.79468 14.092 4.87369 13.8931 4.87369H1.10938C0.910463 4.87369 0.719697 4.79468 0.579045 4.65403C0.438392 4.51337 0.359375 4.32261 0.359375 4.12369C0.359375 3.92478 0.438392 3.73402 0.579045 3.59337C0.719697 3.45271 0.910463 3.3737 1.10938 3.3737H3.43438C3.67201 3.37434 3.90138 3.28654 4.07786 3.12739C4.25434 2.96825 4.36529 2.74913 4.38912 2.5127C4.44447 1.95806 4.70432 1.44389 5.11805 1.07038C5.53177 0.696858 6.06974 0.490745 6.62713 0.492195H8.37463C8.93201 0.490745 9.46998 0.696858 9.8837 1.07038C10.2974 1.44389 10.5573 1.95806 10.6126 2.5127C10.6365 2.74913 10.7474 2.96825 10.9239 3.12739C11.1004 3.28654 11.3297 3.37434 11.5674 3.3737H13.8924C14.0913 3.3737 14.2821 3.45271 14.4227 3.59337C14.5634 3.73402 14.6424 3.92478 14.6424 4.12369H14.6431ZM5.69113 3.3737H9.31213C9.21357 3.1485 9.14911 2.90988 9.12088 2.66569C9.10229 2.48083 9.01576 2.30944 8.87802 2.18473C8.74029 2.06002 8.56118 1.99088 8.37538 1.9907H6.62788C6.44208 1.99088 6.26296 2.06002 6.12523 2.18473C5.98749 2.30944 5.90096 2.48083 5.88238 2.66569C5.8539 2.90992 5.78994 3.14854 5.69113 3.3737ZM6.44637 14.7369V8.3507C6.44637 8.15178 6.36736 7.96102 6.22671 7.82036C6.08605 7.67971 5.89529 7.6007 5.69638 7.6007C5.49746 7.6007 5.3067 7.67971 5.16605 7.82036C5.02539 7.96102 4.94638 8.15178 4.94638 8.3507V14.7399C4.94638 14.9389 5.02539 15.1296 5.16605 15.2703C5.3067 15.4109 5.49746 15.4899 5.69638 15.4899C5.89529 15.4899 6.08605 15.4109 6.22671 15.2703C6.36736 15.1296 6.44637 14.9389 6.44637 14.7399V14.7369ZM10.0569 14.7369V8.3507C10.0569 8.15178 9.97786 7.96102 9.8372 7.82036C9.69655 7.67971 9.50579 7.6007 9.30688 7.6007C9.10796 7.6007 8.9172 7.67971 8.77655 7.82036C8.63589 7.96102 8.55688 8.15178 8.55688 8.3507V14.7399C8.55688 14.9389 8.63589 15.1296 8.77655 15.2703C8.9172 15.4109 9.10796 15.4899 9.30688 15.4899C9.50579 15.4899 9.69655 15.4109 9.8372 15.2703C9.97786 15.1296 10.0569 14.9389 10.0569 14.7399V14.7369Z" fill="#036666"/>
</svg>
