<svg width="21" height="21" viewBox="0 0 21 21" fill="none" xmlns="http://www.w3.org/2000/svg">
<path d="M20 17.8889V16.1515C20 15.2883 19.4744 14.512 18.6729 14.1914L16.5258 13.3325C15.5064 12.9248 14.3445 13.3665 13.8535 14.3485L13.6667 14.7222C13.6667 14.7222 11.0278 14.1944 8.91667 12.0833C6.80556 9.97222 6.27778 7.33333 6.27778 7.33333L6.65146 7.14649C7.63351 6.65547 8.07524 5.49364 7.66746 4.47421L6.8086 2.32706C6.488 1.52556 5.71173 1 4.84849 1H3.11111C1.94518 1 1 1.94518 1 3.11111C1 12.4386 8.56141 20 17.8889 20C19.0548 20 20 19.0548 20 17.8889Z"  stroke-width="1.5" stroke-linejoin="round"/>
</svg>
