<svg width="30" height="30" viewBox="0 0 30 30" fill="none" xmlns="http://www.w3.org/2000/svg">
<g clip-path="url(#clip0_666_2766)">
<path fill-rule="evenodd" clip-rule="evenodd" d="M30 15C30 23.2843 23.2843 30 15 30C6.71572 30 0 23.2843 0 15C0 6.71572 6.71572 0 15 0C23.2843 0 30 6.71572 30 15ZM9.16635 20.8337C8.87348 20.5408 8.87348 20.066 9.16635 19.773L13.9394 15.0001L9.16635 10.2271C8.87348 9.93413 8.87348 9.4593 9.16635 9.16635C9.45922 8.87348 9.93412 8.87348 10.227 9.16635L15 13.9394L19.773 9.16643C20.0659 8.87355 20.5408 8.87355 20.8337 9.16643C21.1265 9.4593 21.1265 9.9342 20.8337 10.2271L16.0606 15.0001L20.8337 19.773C21.1265 20.0659 21.1265 20.5408 20.8337 20.8337C20.5407 21.1265 20.0659 21.1265 19.773 20.8337L15 16.0607L10.2271 20.8337C9.93413 21.1266 9.4593 21.1266 9.16635 20.8337Z" fill="black"/>
</g>
<defs>
<clipPath id="clip0_666_2766">
<rect width="30" height="30" fill="white"/>
</clipPath>
</defs>
</svg>
