<svg width="25" height="25" viewBox="0 0 25 25" fill="none" xmlns="http://www.w3.org/2000/svg">
<path fill-rule="evenodd" clip-rule="evenodd" d="M1.04297 12.5001C1.04297 6.17182 6.17304 1.04175 12.5013 1.04175C18.8296 1.04175 23.9596 6.17182 23.9596 12.5001C23.9596 18.8283 18.8296 23.9584 12.5013 23.9584C6.17304 23.9584 1.04297 18.8283 1.04297 12.5001Z" stroke="#008000" stroke-width="1.5" stroke-linecap="round" stroke-linejoin="round"/>
<path fill-rule="evenodd" clip-rule="evenodd" d="M18.033 8.37817C18.4398 8.78497 18.4398 9.44452 18.033 9.85131L11.5673 16.6221C11.1605 17.0289 10.501 17.0289 10.0942 16.6221L6.96916 13.4971C6.56236 13.0904 6.56236 12.4308 6.96916 12.024C7.37596 11.6172 8.0355 11.6172 8.4423 12.024L10.8307 14.4124L16.5599 8.37817C16.9667 7.97138 17.6262 7.97138 18.033 8.37817Z" fill="#008000"/>
</svg>
