<svg width="24" height="24" viewBox="0 0 24 24" fill="none" xmlns="http://www.w3.org/2000/svg">
<path d="M12.1144 22.3448C6.40981 22.3448 1.76953 17.7045 1.76953 12C1.76953 6.29543 6.40981 1.65515 12.1144 1.65515C17.8189 1.65515 22.4592 6.29543 22.4592 12C22.4592 17.7045 17.8181 22.3448 12.1144 22.3448ZM12.1144 3.31032C7.32263 3.31032 3.4247 7.20825 3.4247 12C3.4247 16.7917 7.32263 20.6896 12.1144 20.6896C16.9061 20.6896 20.804 16.7917 20.804 12C20.804 7.20825 16.9053 3.31032 12.1144 3.31032ZM12.0482 12.7614H6.73505C6.51556 12.7614 6.30506 12.6742 6.14986 12.519C5.99465 12.3638 5.90746 12.1533 5.90746 11.9338C5.90746 11.7143 5.99465 11.5038 6.14986 11.3486C6.30506 11.1934 6.51556 11.1062 6.73505 11.1062H11.2206V4.9655C11.2206 4.74601 11.3078 4.53551 11.463 4.3803C11.6182 4.2251 11.8287 4.13791 12.0482 4.13791C12.2676 4.13791 12.4781 4.2251 12.6333 4.3803C12.7885 4.53551 12.8757 4.74601 12.8757 4.9655V11.9338C12.8757 12.1533 12.7885 12.3638 12.6333 12.519C12.4781 12.6742 12.2676 12.7614 12.0482 12.7614Z" fill="#036666"/>
</svg>
