<svg width="30" height="30" viewBox="0 0 30 30" fill="none" xmlns="http://www.w3.org/2000/svg">
<path fill-rule="evenodd" clip-rule="evenodd" d="M15 30C23.2843 30 30 23.2843 30 15C30 6.71572 23.2843 0 15 0C6.71572 0 0 6.71572 0 15C0 23.2843 6.71572 30 15 30ZM23.0561 10.2532C23.3341 9.94605 23.3104 9.47175 23.0032 9.19387C22.696 8.91592 22.2218 8.93962 21.9439 9.24682L12.9607 19.1756L8.01788 14.4574C7.71825 14.1715 7.2435 14.1825 6.95745 14.4821C6.67147 14.7817 6.6825 15.2565 6.98212 15.5426L12.4822 20.7925L13.0393 21.3244L13.5562 20.7532L23.0561 10.2532Z" fill="#036666"/>
</svg>
