<svg width="35" height="35" viewBox="0 0 35 35" fill="none" xmlns="http://www.w3.org/2000/svg">
<path fill-rule="evenodd" clip-rule="evenodd" d="M16.0417 14.5834C15.2363 14.5834 14.5834 15.2363 14.5834 16.0417V29.1667C14.5834 29.9722 15.2363 30.6251 16.0417 30.6251H29.1667C29.9721 30.6251 30.625 29.9722 30.625 29.1667V16.0417C30.625 15.2363 29.9721 14.5834 29.1667 14.5834H16.0417ZM11.6667 16.0417C11.6667 13.6255 13.6254 11.6667 16.0417 11.6667H29.1667C31.5829 11.6667 33.5417 13.6255 33.5417 16.0417V29.1667C33.5417 31.583 31.5829 33.5417 29.1667 33.5417H16.0417C13.6254 33.5417 11.6667 31.583 11.6667 29.1667V16.0417Z" fill="black" fill-opacity="0.7"/>
<path fill-rule="evenodd" clip-rule="evenodd" d="M5.83331 4.37492C5.44654 4.37492 5.07561 4.52856 4.80212 4.80205C4.52863 5.07554 4.37498 5.44648 4.37498 5.83325V18.9583C4.37498 19.345 4.52863 19.716 4.80212 19.9895C5.07561 20.2629 5.44654 20.4166 5.83331 20.4166H7.29165C8.09706 20.4166 8.74998 21.0695 8.74998 21.8749C8.74998 22.6803 8.09706 23.3333 7.29165 23.3333H5.83331C4.67299 23.3333 3.56019 22.8723 2.73972 22.0518C1.91925 21.2314 1.45831 20.1186 1.45831 18.9583V5.83325C1.45831 4.67293 1.91925 3.56013 2.73972 2.73966C3.56019 1.91919 4.67299 1.45825 5.83331 1.45825H18.9583C20.1186 1.45825 21.2314 1.91919 22.0519 2.73966C22.8724 3.56013 23.3333 4.67293 23.3333 5.83325V7.29159C23.3333 8.097 22.6804 8.74992 21.875 8.74992C21.0696 8.74992 20.4166 8.097 20.4166 7.29159V5.83325C20.4166 5.44648 20.263 5.07555 19.9895 4.80205C19.716 4.52856 19.3451 4.37492 18.9583 4.37492H5.83331Z" fill="black" fill-opacity="0.7"/>
</svg>
