<svg width="19" height="21" viewBox="0 0 19 21" fill="none" xmlns="http://www.w3.org/2000/svg">
<path d="M16.7917 2.16665H15.75V0.083313H13.6667V2.16665H5.33333V0.083313H3.25V2.16665H2.20833C1.05208 2.16665 0.135417 3.10415 0.135417 4.24998L0.125 18.8333C0.125 19.9791 1.05208 20.9166 2.20833 20.9166H16.7917C17.9375 20.9166 18.875 19.9791 18.875 18.8333V4.24998C18.875 3.10415 17.9375 2.16665 16.7917 2.16665ZM16.7917 18.8333H2.20833V8.41665H16.7917V18.8333ZM16.7917 6.33331H2.20833V4.24998H16.7917V6.33331ZM6.375 12.5833H4.29167V10.5H6.375V12.5833ZM10.5417 12.5833H8.45833V10.5H10.5417V12.5833ZM14.7083 12.5833H12.625V10.5H14.7083V12.5833ZM6.375 16.75H4.29167V14.6666H6.375V16.75ZM10.5417 16.75H8.45833V14.6666H10.5417V16.75ZM14.7083 16.75H12.625V14.6666H14.7083V16.75Z" />
</svg>
