<svg width="18" height="18" viewBox="0 0 18 18" fill="none" xmlns="http://www.w3.org/2000/svg">
<path d="M14.0216 2.8125C13.7213 2.8132 13.4241 2.87088 13.1471 2.98221C12.8702 3.09355 12.619 3.25634 12.408 3.46118L3.62763 11.8755L3.5932 12.042L2.98574 14.9688L2.8125 15.75L3.62818 15.584L6.68213 15.0018L6.85537 14.9683L15.6357 6.55401C15.8501 6.35218 16.0203 6.11146 16.1365 5.84591C16.2527 5.58036 16.3125 5.29529 16.3125 5.00733C16.3125 4.71937 16.2527 4.4343 16.1365 4.16875C16.0203 3.9032 15.8501 3.66248 15.6357 3.46065C15.4247 3.25584 15.1734 3.09311 14.8963 2.98186C14.6193 2.87062 14.322 2.81306 14.0216 2.8125ZM14.0216 3.82677C14.3014 3.82677 14.5835 3.94916 14.8545 4.20938C15.3948 4.72662 15.3948 5.28804 14.8545 5.80581L14.4558 6.1714L12.8067 4.59146L13.1887 4.20938C13.4602 3.94916 13.7417 3.82677 14.0216 3.82677ZM12.0265 5.34019L13.6746 6.92012L6.95976 13.3548C6.59726 12.6751 6.02013 12.1224 5.31063 11.7754L12.0265 5.34019ZM4.59989 12.6407C4.92852 12.7674 5.22703 12.9564 5.47751 13.1965C5.72798 13.4365 5.92525 13.7226 6.05746 14.0376L4.23508 14.3866L4.59989 12.6407Z" />
<path d="M4.59989 12.6407C4.92852 12.7674 5.22703 12.9564 5.47751 13.1965C5.72798 13.4365 5.92525 13.7226 6.05746 14.0376L4.23508 14.3866L4.59989 12.6407Z" />
<path d="M14.0216 3.82677C14.3014 3.82677 14.5835 3.94916 14.8545 4.20938C15.3948 4.72662 15.3948 5.28804 14.8545 5.80581L14.4558 6.1714L12.8067 4.59146L13.1887 4.20938C13.4602 3.94916 13.7417 3.82677 14.0216 3.82677Z" />
</svg>
