<svg width="38" height="18" viewBox="0 0 38 18" fill="none" xmlns="http://www.w3.org/2000/svg">
<path d="M35.7482 8.68663C36.8872 9.82566 36.8872 11.6724 35.7482 12.8114L32.3666 16.193C31.9227 16.6368 31.2447 16.7469 30.6832 16.4661L24.5051 13.3771C23.8559 13.0525 23.5443 12.3 23.7737 11.6115L24.9376 8.12C21.28 6.73564 17.218 6.73564 13.5604 8.12L14.7242 11.6115C14.9537 12.3 14.642 13.0525 13.9929 13.3771L7.81476 16.4661C7.25332 16.7469 6.57524 16.6368 6.13138 16.193L2.74984 12.8114C1.61081 11.6724 1.61081 9.82566 2.74984 8.68663L3.78103 7.65543C12.3238 -0.887288 26.1742 -0.887288 34.717 7.65543L35.7482 8.68663Z" stroke="white" stroke-width="2" stroke-linecap="round" stroke-linejoin="round"/>
</svg>
