<svg width="22" height="22" viewBox="0 0 22 22" fill="none" xmlns="http://www.w3.org/2000/svg">
<g clip-path="url(#clip0_720_777)">
<path d="M2.74967 22H12.833C13.5617 21.9978 14.2599 21.7074 14.7751 21.1921C15.2904 20.6769 15.5808 19.9787 15.583 19.25L15.583 13.75L7.33301 13.75C6.60366 13.75 5.90419 13.4603 5.38846 12.9445C4.87274 12.4288 4.58301 11.7293 4.58301 11C4.58301 10.2707 4.87274 9.57118 5.38846 9.05546C5.90419 8.53973 6.60366 8.25 7.33301 8.25L15.583 8.25V2.75C15.5808 2.02132 15.2904 1.32311 14.7751 0.807859C14.2599 0.292606 13.5617 0.00217628 12.833 0H2.74967C2.021 0.00217628 1.32279 0.292606 0.807535 0.807859C0.292281 1.32311 0.00185108 2.02132 -0.000325203 2.75L-0.000325203 19.25C0.00185108 19.9787 0.292281 20.6769 0.807535 21.1921C1.32279 21.7074 2.021 21.9978 2.74967 22Z" />
<path d="M18.8725 10.0831L7.33165 10.0831C7.08854 10.0831 6.85538 10.1797 6.68347 10.3516C6.51156 10.5235 6.41499 10.7566 6.41499 10.9997C6.41499 11.2429 6.51156 11.476 6.68347 11.6479C6.85538 11.8198 7.08854 11.9164 7.33165 11.9164L18.8725 11.9164L17.6808 13.0989C17.5082 13.2715 17.4112 13.5056 17.4112 13.7497C17.4112 13.9939 17.5082 14.228 17.6808 14.4006C17.8534 14.5732 18.0875 14.6702 18.3317 14.6702C18.5758 14.6702 18.8099 14.5732 18.9825 14.4006L21.7325 11.6506C21.8981 11.4743 21.9902 11.2416 21.9902 10.9997C21.9902 10.7579 21.8981 10.5252 21.7325 10.3489L18.9825 7.59892C18.807 7.4319 18.5739 7.33876 18.3317 7.33876C18.0894 7.33876 17.8563 7.4319 17.6808 7.59892C17.5091 7.77199 17.4127 8.00593 17.4127 8.24975C17.4127 8.49357 17.5091 8.72751 17.6808 8.90058L18.8725 10.0831Z" />
</g>
<defs>
<clipPath id="clip0_720_777">
<rect width="22" height="22" fill="white" transform="matrix(-1 0 0 -1 22 22)"/>
</clipPath>
</defs>
</svg>
