<svg width="49" height="75" viewBox="0 0 49 75" fill="none" xmlns="http://www.w3.org/2000/svg">
<path d="M24.4997 14.8649C29.9922 14.8649 34.4447 11.5406 34.4447 7.43989C34.4447 3.33918 29.9922 0.0148926 24.4997 0.0148926C19.0072 0.0148926 14.5547 3.33918 14.5547 7.43989C14.5547 11.5406 19.0072 14.8649 24.4997 14.8649Z" fill="url(#paint0_linear_2011_1246)"/>
<path d="M35.42 36.6449C35.42 36.6449 36.305 35.0249 37.505 35.0549C38.525 35.0849 39.56 36.5249 39.065 38.2049C38.57 39.8999 37.655 42.7049 37.655 42.7049C37.655 42.7049 36.875 44.6699 35.255 43.8299C33.65 43.0199 35.42 36.6449 35.42 36.6449Z" fill="url(#paint1_linear_2011_1246)"/>
<path d="M13.1437 36.6449C13.1437 36.6449 12.2587 35.0249 11.0587 35.0549C10.0387 35.0849 9.00371 36.5249 9.49871 38.2049C9.99371 39.8999 10.9087 42.7049 10.9087 42.7049C10.9087 42.7049 11.6887 44.6699 13.3087 43.8299C14.9137 43.0199 13.1437 36.6449 13.1437 36.6449Z" fill="url(#paint2_linear_2011_1246)"/>
<path d="M47.6286 61.62C45.3936 59.415 34.7886 60.81 31.2336 56.805C30.5136 55.995 29.8236 53.205 29.2686 50.37C29.2536 50.28 29.1636 50.22 29.0736 50.22H19.9086C19.8186 50.22 19.7286 50.28 19.7136 50.37C19.1586 53.205 18.4686 56.01 17.7486 56.805C14.1936 60.825 3.58859 59.415 1.35359 61.62C0.438593 62.535 0.198594 64.59 0.183594 66.48V74.955C0.183594 75.06 0.273593 75.135 0.378593 75.135H48.5736C48.6786 75.135 48.7686 75.06 48.7686 74.955V66.48C48.7836 64.605 48.5436 62.535 47.6286 61.62Z" fill="url(#paint3_linear_2011_1246)"/>
<path d="M12.4675 29.0548C14.1475 21.7048 19.4425 18.7648 24.4075 18.6748H24.6475C29.5975 18.7648 34.8925 21.7198 36.5575 29.0848C38.9575 39.6898 34.7875 46.3198 30.0625 50.3398C28.1425 51.9598 26.3275 52.6948 24.6175 52.6948H24.3775C22.6525 52.6948 20.8375 51.9598 18.9325 50.3248C14.1775 46.3048 10.0375 39.6598 12.4675 29.0548Z" fill="url(#paint4_linear_2011_1246)"/>
<path d="M11.2092 36.4798C11.4492 36.9448 12.0042 37.0948 12.4092 36.7798L18.2742 32.2948C20.9592 30.1648 28.0242 26.3248 30.2142 24.6898C30.5892 24.4198 31.0992 24.5098 31.3542 24.8998C33.9492 28.8298 35.4342 32.8048 36.1992 35.5948C36.4242 36.4198 37.4592 36.4948 37.7742 35.6998C38.5842 33.6898 39.5742 29.7748 38.8692 24.8248C37.8642 17.6998 33.8592 12.8548 27.3492 12.3748C26.1642 12.2848 12.3042 11.7298 10.0092 24.8248C8.92919 31.0198 10.3842 34.8898 11.2092 36.4798Z" fill="url(#paint5_linear_2011_1246)"/>
<path d="M31.22 13.35C30.32 13.155 28.22 13.125 24.875 13.125C21.53 13.125 19.055 13.545 18.5 13.695" stroke="url(#paint6_linear_2011_1246)" stroke-width="1.5" stroke-miterlimit="10" stroke-linecap="round"/>
<defs>
<linearGradient id="paint0_linear_2011_1246" x1="24.3057" y1="12.8313" x2="24.8058" y2="-1.06871" gradientUnits="userSpaceOnUse">
<stop/>
<stop offset="1" stop-color="#111111"/>
</linearGradient>
<linearGradient id="paint1_linear_2011_1246" x1="39.006" y1="40.1315" x2="36.081" y2="39.3815" gradientUnits="userSpaceOnUse">
<stop stop-color="#FFCA9D"/>
<stop offset="1" stop-color="#FFD9A9"/>
</linearGradient>
<linearGradient id="paint2_linear_2011_1246" x1="8.89871" y1="39.5472" x2="12.6202" y2="39.5472" gradientUnits="userSpaceOnUse">
<stop stop-color="#FFCA9D"/>
<stop offset="1" stop-color="#FFD9A9"/>
</linearGradient>
<linearGradient id="paint3_linear_2011_1246" x1="24" y1="16.5" x2="24.7414" y2="78.8698" gradientUnits="userSpaceOnUse">
<stop offset="0.032" stop-color="#FAAF87"/>
<stop offset="0.82" stop-color="#036666"/>
</linearGradient>
<linearGradient id="paint4_linear_2011_1246" x1="21.4832" y1="22.3789" x2="28.0834" y2="49.5288" gradientUnits="userSpaceOnUse">
<stop offset="0.032" stop-color="#FAAF87"/>
<stop offset="1" stop-color="#FFD9A9"/>
</linearGradient>
<linearGradient id="paint5_linear_2011_1246" x1="9.62354" y1="24.6542" x2="39.1045" y2="24.6542" gradientUnits="userSpaceOnUse">
<stop/>
<stop offset="1" stop-color="#111111"/>
</linearGradient>
<linearGradient id="paint6_linear_2011_1246" x1="17.75" y1="13.4126" x2="31.9625" y2="13.4126" gradientUnits="userSpaceOnUse">
<stop offset="0.065" stop-color="#036666"/>
<stop offset="0.995" stop-color="#036666"/>
</linearGradient>
</defs>
</svg>
