<svg width="25" height="25" viewBox="0 0 25 25" fill="none" xmlns="http://www.w3.org/2000/svg">
<path d="M6.25625 1.5625C5.42604 1.56333 4.63008 1.89349 4.04304 2.48054C3.45599 3.06758 3.12583 3.86354 3.125 4.69375V21.8687C3.125 23.5953 4.52969 25 6.25625 25H18.7438C19.5738 24.9988 20.3696 24.6685 20.9565 24.0815C21.5435 23.4946 21.8738 22.6988 21.875 21.8687V8.62656C21.875 8.59219 21.8594 8.56094 21.8531 8.52656C21.8346 8.35703 21.7617 8.19805 21.6453 8.07344L15.3953 1.825C15.3734 1.80312 15.3422 1.80156 15.3172 1.78281C15.172 1.64269 14.9784 1.5638 14.7766 1.5625H6.25625ZM6.25625 3.125H14.0625V6.29844C14.0625 8.0125 15.4547 9.40781 17.1687 9.40781H20.3125V21.8687C20.3125 22.7344 19.6094 23.4375 18.7438 23.4375H6.25625C5.39063 23.4375 4.6875 22.7344 4.6875 21.8687V4.69375C4.6875 3.82812 5.39063 3.125 6.25625 3.125ZM15.625 4.2875L19.2031 7.84531H17.1687C16.759 7.84448 16.3664 7.68115 16.077 7.39114C15.7875 7.10113 15.625 6.70815 15.625 6.29844V4.2875Z" fill="#231F20"/>
</svg>
