<svg width="22" height="22" viewBox="0 0 22 22" fill="none" xmlns="http://www.w3.org/2000/svg">
<path d="M11.2245 4.25334C13.3322 4.25334 14.754 5.14557 15.5646 5.89112L18.7324 2.86001C16.7869 1.08778 14.2551 0 11.2245 0C6.83449 0 3.04311 2.46889 1.19731 6.06223L4.82656 8.82446C5.73699 6.17223 8.25626 4.25334 11.2245 4.25334Z" fill="#EA4335"/>
<path d="M22 11.2445C22 10.34 21.9252 9.68001 21.763 8.99557H11.2245V13.0778H17.4104C17.2857 14.0922 16.6122 15.62 15.1156 16.6467L18.6576 19.3356C20.7778 17.4167 22 14.5934 22 11.2445Z" fill="#007ACE"/>
<path d="M4.839 13.1756C4.60204 12.4911 4.46485 11.7578 4.46485 11C4.46485 10.2422 4.60207 9.50891 4.82656 8.82446L1.19731 6.06223C0.436535 7.55335 0 9.22777 0 11C0 12.7722 0.436508 14.4467 1.19728 15.9378L4.839 13.1756Z" fill="#FBBC05"/>
<path d="M11.2245 22C14.2551 22 16.7993 21.0223 18.6576 19.3356L15.1156 16.6467C14.1678 17.2945 12.8957 17.7467 11.2245 17.7467C8.25621 17.7467 5.73696 15.8278 4.839 13.1756L1.20973 15.9378C3.05553 19.5311 6.83444 22 11.2245 22Z" fill="#34A853"/>
</svg>
