<svg width="40" height="41" viewBox="0 0 40 41" fill="none" xmlns="http://www.w3.org/2000/svg">
<path d="M15.225 35.1222V30.0259C15.225 28.725 16.2873 27.6704 17.5977 27.6704H22.388C23.0173 27.6704 23.6208 27.9186 24.0658 28.3603C24.5108 28.8021 24.7608 29.4012 24.7608 30.0259V35.1222C24.7568 35.663 24.9704 36.183 25.3543 36.5669C25.7381 36.9507 26.2604 37.1666 26.8052 37.1666H30.0734C31.5997 37.1705 33.0649 36.5713 34.1456 35.5013C35.2263 34.4312 35.8337 32.9782 35.8337 31.463V16.9447C35.8337 15.7207 35.2871 14.5597 34.3414 13.7744L23.2237 4.9597C21.2898 3.41419 18.5188 3.46409 16.6426 5.07822L5.77868 13.7744C4.78823 14.5365 4.19625 15.701 4.16699 16.9447V31.4481C4.16699 34.6063 6.74596 37.1666 9.92728 37.1666H13.1208C14.2524 37.1666 15.172 36.2603 15.1802 35.137L15.225 35.1222Z" />
</svg>
