<svg width="40" height="41" viewBox="0 0 40 41" fill="none" xmlns="http://www.w3.org/2000/svg">
<path d="M20.6923 10.9268H11.0195V14.0321H20.6923V10.9268Z"  />
<path d="M11.0174 37.3533H20.6948L20.695 15.3706H11.0177L11.0174 37.3533ZM15.8507 24.6251C17.6094 24.6251 19.04 26.0561 19.04 27.8147C19.04 29.5689 17.6094 30.9959 15.8507 30.9959C14.0966 30.9959 12.6695 29.5689 12.6695 27.8147C12.6695 26.0561 14.0966 24.6251 15.8507 24.6251ZM4.83484 29.6575C5.8557 29.6575 6.68602 28.8308 6.68602 27.8148C6.68602 26.794 5.8557 25.9637 4.83484 25.9637C3.81891 25.9637 2.99219 26.794 2.99219 27.8148C2.99219 28.8308 3.81891 29.6575 4.83484 29.6575Z"  />
<path d="M15.8505 29.6575C16.871 29.6575 17.7013 28.8307 17.7013 27.8148C17.7013 26.7939 16.871 25.9636 15.8505 25.9636C14.8345 25.9636 14.0078 26.7939 14.0078 27.8148C14.0078 28.8307 14.8345 29.6575 15.8505 29.6575Z"  />
<path d="M20.697 3.64673H11.0195V9.58845H20.697V3.64673Z"  />
<path d="M9.67734 3.64673H0V9.58845H9.67734V3.64673Z"  />
<path d="M9.67672 10.9268H0.00390625V14.0321H9.67672V10.9268Z"  />
<path d="M0 37.3533H9.67734L9.67758 15.3706H0.000234375L0 37.3533ZM4.83492 24.6251C6.59359 24.6251 8.02453 26.0561 8.02453 27.8147C8.02453 29.5689 6.59359 30.9959 4.83492 30.9959C3.08078 30.9959 1.65375 29.5689 1.65375 27.8147C1.65383 26.0561 3.08078 24.6251 4.83492 24.6251Z"  />
<path d="M33.3285 10.4996L24.4844 12.9319L25.2542 15.7312L34.0984 13.299L33.3285 10.4996Z"  />
<path d="M31.4907 3.80148L22.6406 6.23389L24.1276 11.644L32.9777 9.21156L31.4907 3.80148Z"  />
<path d="M34.4594 14.5879L25.6055 17.0238L31.1534 37.2012L40.0006 34.7652L34.4594 14.5879ZM33.1611 30.3014C31.4747 30.3014 30.1027 28.9228 30.1027 27.2363C30.1027 25.5365 31.4747 24.1579 33.1611 24.1579C34.8609 24.1579 36.2396 25.5365 36.2396 27.2363C36.2395 28.9228 34.8609 30.3014 33.1611 30.3014Z"  />
<path d="M33.163 29.0752C34.1835 29.0752 35.0138 28.2485 35.0138 27.2325C35.0138 26.2117 34.1835 25.3813 33.163 25.3813C32.147 25.3813 31.3203 26.2117 31.3203 27.2325C31.3203 28.2485 32.147 29.0752 33.163 29.0752Z"  />
</svg>
