<svg width="75" height="75" viewBox="0 0 75 75" fill="none" xmlns="http://www.w3.org/2000/svg">
<path d="M21.0866 29.7463C22.5303 29.7463 23.7006 27.776 23.7006 25.3456C23.7006 22.9151 22.5303 20.9448 21.0866 20.9448C19.643 20.9448 18.4727 22.9151 18.4727 25.3456C18.4727 27.776 19.643 29.7463 21.0866 29.7463Z" fill="#E8C59E"/>
<path d="M53.4382 29.7463C54.8818 29.7463 56.0522 27.776 56.0522 25.3456C56.0522 22.9151 54.8818 20.9448 53.4382 20.9448C51.9945 20.9448 50.8242 22.9151 50.8242 25.3456C50.8242 27.776 51.9945 29.7463 53.4382 29.7463Z" fill="#E8C59E"/>
<path d="M46.9079 47.2058C51.1857 47.475 55.4208 48.2148 59.5365 49.4117C65.9115 51.397 70.1909 56.8345 70.1909 62.9227V72.794H4.80859V62.9668C4.80859 56.8786 9.08801 51.4411 15.463 49.4558C19.5788 48.2589 23.8139 47.5191 28.0917 47.2499" fill="#036666"/>
<path d="M30.938 40.136L37.5225 42.8051L44.1071 40.136L45.2872 44.4595L37.5225 49.8419L29.7578 44.4595L30.938 40.136Z" fill="#DBB997"/>
<path d="M53.9357 22.5663C53.9357 30.0111 50.318 38.3494 44.9798 42.717C42.8441 44.6077 40.1105 45.6855 37.2592 45.7611C34.4415 45.683 31.739 44.6261 29.6158 42.7722C24.2665 38.4376 20.5938 30.0553 20.5938 22.5663C20.5938 22.0001 20.6158 21.4486 20.6599 20.9119C23.217 18.2978 26.3622 16.3332 29.833 15.182C33.3039 14.0308 36.9997 13.7264 40.6121 14.2942C46.3695 15.0553 49.8768 14.7244 52.0165 14.0736C53.3225 16.7116 53.9804 19.6231 53.9357 22.5663Z" fill="#E8C59E"/>
<path d="M29.7574 44.4595L30.1765 44.7462L37.5221 49.8418L31.489 55.8529L27.75 47.3381L29.7574 44.4595ZM45.2868 44.4595L44.8676 44.7462L37.5221 49.8418L43.5552 55.8529L47.2941 47.3381L45.2868 44.4595Z" fill="#E6E6E6"/>
<path d="M52.9408 25.82H51.4849C52.0675 23.505 51.744 21.055 50.5805 18.9707C50.5805 18.9707 48.0768 22.3677 45.2202 22.1251C43.621 21.9927 41.3158 20.603 39.5511 19.3788C36.8738 17.4431 33.5374 16.6497 30.2754 17.1729C26.6908 17.8236 22.7423 20.0957 21.3195 26.6251H19.8526C19.8526 26.6251 16.4665 3.12142 36.0437 3.0001C36.0437 3.0001 45.2974 4.96333 47.393 3.0001C49.4886 1.03686 53.2386 2.87877 54.6062 6.7501C57.0989 15.331 52.9408 25.82 52.9408 25.82Z" fill="#2F3233"/>
</svg>
