<svg width="40" height="41" viewBox="0 0 40 41" fill="none" xmlns="http://www.w3.org/2000/svg">
<g clip-path="url(#clip0_1010_3329)">
<path d="M22.0065 0.575028C16.3815 0.143778 11.7003 1.58128 8.81275 4.63753C6.794 6.76878 5.7565 9.65003 5.7565 13.05C5.7565 13.8563 5.819 14.6938 5.9315 15.55C5.969 15.8375 5.92525 16.1063 5.819 16.35L2.66275 22.9438C2.394 23.3875 2.3815 23.9125 2.63775 24.3563C2.894 24.8125 3.37525 25.0938 3.9065 25.1063L5.26275 25.2563V29.3938C5.26275 31.1375 6.7565 32.5625 8.58775 32.5625H12.6503L12.0627 39.8438C12.0503 40.0125 12.1065 40.175 12.219 40.3063C12.3378 40.425 12.5003 40.5 12.669 40.5H27.8752C28.069 40.5 28.2565 40.4 28.3753 40.2375C28.4815 40.075 28.5128 39.8688 28.444 39.6813C28.419 39.6125 26.0315 32.9063 30.819 28.6313C35.3503 24.5813 37.5503 20.5938 37.5503 16.4438C37.544 9.68128 33.4815 1.46878 22.0065 0.575028ZM13.769 23.8313C13.6565 23.8313 13.5378 23.7938 13.4378 23.7313C13.194 23.5688 13.1003 23.2563 13.2065 22.9938L15.8565 16.575H13.9753C13.769 16.575 13.5815 16.475 13.469 16.3C13.3628 16.1313 13.344 15.9125 13.4253 15.725L17.2128 7.11253C17.3128 6.88753 17.5253 6.75003 17.769 6.75003H22.869C23.0753 6.75003 23.2628 6.85003 23.3753 7.03128C23.4815 7.20003 23.5003 7.41878 23.419 7.60628L21.5753 11.7438H24.1378C24.3815 11.7438 24.6003 11.8875 24.694 12.1125C24.794 12.3313 24.744 12.5938 24.5815 12.7688L14.2003 23.6438C14.094 23.7625 13.9378 23.8313 13.769 23.8313ZM26.669 23.525L19.394 31.1438C19.2815 31.2688 19.119 31.3313 18.9565 31.3313C18.844 31.3313 18.7253 31.3 18.6315 31.2313C18.3815 31.075 18.2878 30.7625 18.4003 30.4938L20.1503 26.25H19.1003C18.894 26.25 18.7065 26.15 18.594 25.9688C18.4878 25.8 18.469 25.5813 18.5503 25.3938L21.2065 19.3563C21.3065 19.1375 21.519 19 21.7565 19H25.3378C25.5378 19 25.7315 19.1 25.8378 19.275C25.9503 19.45 25.969 19.6625 25.8877 19.85L24.7128 22.5H26.2253C26.469 22.5 26.6877 22.6438 26.7815 22.8688C26.8878 23.0938 26.8377 23.35 26.669 23.525Z" />
<path d="M20.1359 12.6749C20.0297 12.5062 20.0109 12.2874 20.0922 12.0999L21.9359 7.9624H18.1609L14.8984 15.3624H16.7547C16.9609 15.3624 17.1484 15.4624 17.2609 15.6374C17.3672 15.7999 17.3922 16.0187 17.3172 16.1999L15.5609 20.4687L22.7297 12.9624H20.6422C20.4422 12.9562 20.2547 12.8499 20.1359 12.6749ZM23.2734 23.4374C23.1609 23.2624 23.1422 23.0437 23.2234 22.8562L24.4047 20.2124H22.1547L20.0297 25.0374H21.0547C21.2547 25.0374 21.4422 25.1374 21.5547 25.3062C21.6672 25.4749 21.6859 25.6874 21.6109 25.8749L20.7484 27.9687L24.8109 23.7062H23.7797C23.5734 23.7124 23.3797 23.6124 23.2734 23.4374Z" />
</g>
<defs>
<clipPath id="clip0_1010_3329">
<rect width="40" height="40" fill="white" transform="translate(0 0.5)"/>
</clipPath>
</defs>
</svg>
