<svg width="40" height="41" viewBox="0 0 40 41" fill="none" xmlns="http://www.w3.org/2000/svg">
<path fill-rule="evenodd" clip-rule="evenodd" d="M24.057 28.8333C23.682 30.2749 22.3737 31.3333 20.8154 31.3333H14.9987C14.5404 31.3333 14.1654 30.9583 14.1654 30.4999C14.1654 30.0416 14.5404 29.6666 14.9987 29.6666H20.8154C21.607 29.6666 22.3904 28.8333 22.4487 28.3999C22.4987 27.9999 21.907 27.1749 21.3237 26.8249L18.5237 25.1499C17.9987 24.8333 17.407 24.6749 16.7987 24.6749H11.6654C11.207 24.6749 10.832 25.0499 10.832 25.5083C10.832 25.8833 10.8904 34.1333 10.8487 34.5083C10.832 34.6749 11.0487 35.3999 11.4987 35.4916C11.4987 35.4916 15.0737 36.7499 16.557 37.0749C16.8487 37.1416 17.1487 37.1749 17.457 37.1749H19.9987C20.357 37.1749 20.707 37.1333 21.0487 37.0416C22.9487 36.5416 31.3154 34.4499 34.9904 33.4749C35.3317 33.3849 35.6467 33.2148 35.9092 32.9787C36.1717 32.7426 36.3741 32.4473 36.4995 32.1173C36.625 31.7873 36.67 31.4321 36.6307 31.0813C36.5914 30.7304 36.469 30.394 36.2737 30.0999L36.0987 29.8333C35.8956 29.5286 35.6206 29.2787 35.2979 29.1058C34.9752 28.9328 34.6148 28.842 34.2487 28.8416H24.0487L24.057 28.8333ZM9.16536 25.4999C9.16536 24.1166 8.0487 22.9999 6.66536 22.9999H5.83203C4.4487 22.9999 3.33203 24.1166 3.33203 25.4999V34.6666C3.33203 36.0499 4.4487 37.1666 5.83203 37.1666H6.66536C8.0487 37.1666 9.16536 36.0499 9.16536 34.6666V25.4999ZM35.1987 21.0749C34.823 20.948 34.4817 20.736 34.2013 20.4556C33.9209 20.1752 33.709 19.8339 33.582 19.4583C33.4404 19.0249 33.3237 17.8999 33.3237 17.8999C33.3013 17.6968 33.2047 17.509 33.0525 17.3727C32.9003 17.2363 32.7031 17.1609 32.4987 17.1609C32.2943 17.1609 32.0971 17.2363 31.9449 17.3727C31.7927 17.509 31.6961 17.6968 31.6737 17.8999C31.6737 17.8999 31.557 19.0166 31.4154 19.4583C31.157 20.2166 30.5654 20.8166 29.7987 21.0749C29.3154 21.2333 28.907 21.3749 28.907 21.3749C28.5654 21.4916 28.3404 21.8083 28.3404 22.1666C28.3404 22.5249 28.5737 22.8416 28.907 22.9583C28.907 22.9583 29.3154 23.0916 29.7987 23.2583C30.557 23.5166 31.157 24.1083 31.4154 24.8749C31.557 25.3083 31.6737 26.4333 31.6737 26.4333C31.6961 26.6364 31.7927 26.8241 31.9449 26.9605C32.0971 27.0969 32.2943 27.1723 32.4987 27.1723C32.7031 27.1723 32.9003 27.0969 33.0525 26.9605C33.2047 26.8241 33.3013 26.6364 33.3237 26.4333C33.3237 26.4333 33.4404 25.3166 33.582 24.8749C33.8404 24.1166 34.432 23.5166 35.1987 23.2583C35.682 23.0999 36.0904 22.9583 36.0904 22.9583C36.432 22.8416 36.657 22.5249 36.657 22.1666C36.657 21.8083 36.4237 21.4916 36.0904 21.3749L35.1987 21.0749ZM24.7904 11.3916L20.832 17.8916V22.9999H24.1654C26.007 22.9999 27.4987 21.5083 27.4987 19.6666V14.6666C27.4987 13.0416 26.332 11.6833 24.7904 11.3916ZM15.207 11.3916C14.4453 11.5376 13.7583 11.9445 13.264 12.5421C12.7698 13.1398 12.4992 13.891 12.4987 14.6666V19.6666C12.4987 21.5083 13.9904 22.9999 15.832 22.9999H19.1654V17.8916L15.207 11.3916ZM10.1987 10.2416C9.82302 10.1146 9.48171 9.90271 9.20131 9.62231C8.92091 9.34191 8.70898 9.00059 8.58203 8.62492C8.44036 8.19159 8.3237 7.06659 8.3237 7.06659C8.3013 6.86344 8.20473 6.6757 8.0525 6.53933C7.90027 6.40296 7.70308 6.32755 7.4987 6.32755C7.29432 6.32755 7.09713 6.40296 6.94489 6.53933C6.79266 6.6757 6.6961 6.86344 6.6737 7.06659C6.6737 7.06659 6.55703 8.18325 6.41536 8.62492C6.15703 9.38325 5.56536 9.98325 4.7987 10.2416C4.31536 10.3999 3.90703 10.5416 3.90703 10.5416C3.56536 10.6583 3.34036 10.9749 3.34036 11.3333C3.34036 11.6916 3.5737 12.0083 3.90703 12.1249C3.90703 12.1249 4.31536 12.2583 4.7987 12.4249C5.55703 12.6833 6.15703 13.2749 6.41536 14.0416C6.55703 14.4749 6.6737 15.5999 6.6737 15.5999C6.6961 15.8031 6.79266 15.9908 6.94489 16.1272C7.09713 16.2635 7.29432 16.339 7.4987 16.339C7.70308 16.339 7.90027 16.2635 8.0525 16.1272C8.20473 15.9908 8.3013 15.8031 8.3237 15.5999C8.3237 15.5999 8.44036 14.4833 8.58203 14.0416C8.84036 13.2833 9.43203 12.6833 10.1987 12.4249C10.682 12.2666 11.0904 12.1249 11.0904 12.1249C11.432 12.0083 11.657 11.6916 11.657 11.3333C11.657 10.9749 11.4237 10.6583 11.0904 10.5416L10.1987 10.2416ZM19.9987 16.3333L21.5904 13.6166C21.082 13.7583 20.5487 13.8333 19.9987 13.8333C19.4487 13.8333 18.9154 13.7583 18.407 13.6166L19.9987 16.3333ZM33.532 8.57492C33.1564 8.44797 32.815 8.23604 32.5346 7.95564C32.2542 7.67524 32.0423 7.33393 31.9154 6.95825C31.7737 6.52492 31.657 5.39992 31.657 5.39992C31.6346 5.19677 31.5381 5.00903 31.3858 4.87266C31.2336 4.73629 31.0364 4.66089 30.832 4.66089C30.6277 4.66089 30.4305 4.73629 30.2782 4.87266C30.126 5.00903 30.0294 5.19677 30.007 5.39992C30.007 5.39992 29.8904 6.51659 29.7487 6.95825C29.4904 7.71659 28.8987 8.31659 28.132 8.57492C27.6487 8.73325 27.2404 8.87492 27.2404 8.87492C26.8987 8.99159 26.6737 9.30825 26.6737 9.66659C26.6737 10.0249 26.907 10.3416 27.2404 10.4583C27.2404 10.4583 27.6487 10.5916 28.132 10.7583C28.8904 11.0166 29.4904 11.6083 29.7487 12.3749C29.8904 12.8083 30.007 13.9333 30.007 13.9333C30.0294 14.1364 30.126 14.3241 30.2782 14.4605C30.4305 14.5969 30.6277 14.6723 30.832 14.6723C31.0364 14.6723 31.2336 14.5969 31.3858 14.4605C31.5381 14.3241 31.6346 14.1364 31.657 13.9333C31.657 13.9333 31.7737 12.8166 31.9154 12.3749C32.1737 11.6166 32.7654 11.0166 33.532 10.7583C34.0154 10.5999 34.4237 10.4583 34.4237 10.4583C34.7654 10.3416 34.9904 10.0249 34.9904 9.66659C34.9904 9.30825 34.757 8.99159 34.4237 8.87492L33.532 8.57492ZM19.9987 3.83325C17.6987 3.83325 15.832 5.69992 15.832 7.99992C15.832 10.2999 17.6987 12.1666 19.9987 12.1666C22.2987 12.1666 24.1654 10.2999 24.1654 7.99992C24.1654 5.69992 22.2987 3.83325 19.9987 3.83325Z" />
</svg>
