<svg width="40" height="41" viewBox="0 0 40 41" fill="none" xmlns="http://www.w3.org/2000/svg">
<path d="M31.668 7.16659H26.668V5.49992C26.668 5.05789 26.4924 4.63397 26.1798 4.32141C25.8673 4.00885 25.4433 3.83325 25.0013 3.83325H15.0013C14.5593 3.83325 14.1354 4.00885 13.8228 4.32141C13.5102 4.63397 13.3346 5.05789 13.3346 5.49992V7.16659H8.33464C7.89261 7.16659 7.46869 7.34218 7.15612 7.65474C6.84356 7.9673 6.66797 8.39122 6.66797 8.83325V35.4999C6.66797 35.9419 6.84356 36.3659 7.15612 36.6784C7.46869 36.991 7.89261 37.1666 8.33464 37.1666H31.668C32.11 37.1666 32.5339 36.991 32.8465 36.6784C33.159 36.3659 33.3346 35.9419 33.3346 35.4999V8.83325C33.3346 8.39122 33.159 7.9673 32.8465 7.65474C32.5339 7.34218 32.11 7.16659 31.668 7.16659ZM16.668 7.16659H23.3346V10.4999H16.668V7.16659ZM13.3346 17.1666H21.668C22.11 17.1666 22.5339 17.3422 22.8465 17.6547C23.159 17.9673 23.3346 18.3912 23.3346 18.8333C23.3346 19.2753 23.159 19.6992 22.8465 20.0118C22.5339 20.3243 22.11 20.4999 21.668 20.4999H13.3346C12.8926 20.4999 12.4687 20.3243 12.1561 20.0118C11.8436 19.6992 11.668 19.2753 11.668 18.8333C11.668 18.3912 11.8436 17.9673 12.1561 17.6547C12.4687 17.3422 12.8926 17.1666 13.3346 17.1666ZM26.668 30.4999H13.3346C12.8926 30.4999 12.4687 30.3243 12.1561 30.0118C11.8436 29.6992 11.668 29.2753 11.668 28.8333C11.668 28.3912 11.8436 27.9673 12.1561 27.6547C12.4687 27.3422 12.8926 27.1666 13.3346 27.1666H26.668C27.11 27.1666 27.5339 27.3422 27.8465 27.6547C28.159 27.9673 28.3346 28.3912 28.3346 28.8333C28.3346 29.2753 28.159 29.6992 27.8465 30.0118C27.5339 30.3243 27.11 30.4999 26.668 30.4999ZM26.668 25.4999H13.3346C12.8926 25.4999 12.4687 25.3243 12.1561 25.0118C11.8436 24.6992 11.668 24.2753 11.668 23.8333C11.668 23.3912 11.8436 22.9673 12.1561 22.6547C12.4687 22.3422 12.8926 22.1666 13.3346 22.1666H26.668C27.11 22.1666 27.5339 22.3422 27.8465 22.6547C28.159 22.9673 28.3346 23.3912 28.3346 23.8333C28.3346 24.2753 28.159 24.6992 27.8465 25.0118C27.5339 25.3243 27.11 25.4999 26.668 25.4999Z"  />
</svg>
