<svg width="35" height="35" viewBox="0 0 35 35" fill="none" xmlns="http://www.w3.org/2000/svg">
<path d="M29.2396 16.0417H5.76042C4.99527 16.0417 4.375 16.662 4.375 17.4272V17.573C4.375 18.3381 4.99527 18.9584 5.76042 18.9584H29.2396C30.0047 18.9584 30.625 18.3381 30.625 17.573V17.4272C30.625 16.662 30.0047 16.0417 29.2396 16.0417Z" />
<path d="M29.2396 23.3333H5.76042C4.99527 23.3333 4.375 23.9535 4.375 24.7187V24.8645C4.375 25.6296 4.99527 26.2499 5.76042 26.2499H29.2396C30.0047 26.2499 30.625 25.6296 30.625 24.8645V24.7187C30.625 23.9535 30.0047 23.3333 29.2396 23.3333Z" />
<path d="M29.2396 8.75H5.76042C4.99527 8.75 4.375 9.37027 4.375 10.1354V10.2813C4.375 11.0464 4.99527 11.6667 5.76042 11.6667H29.2396C30.0047 11.6667 30.625 11.0464 30.625 10.2813V10.1354C30.625 9.37027 30.0047 8.75 29.2396 8.75Z" />
</svg>
