<svg width="25" height="25" viewBox="0 0 25 25" fill="none" xmlns="http://www.w3.org/2000/svg">
<path d="M19.8629 5.13554C18.1538 3.41523 15.898 2.34514 13.4844 2.10975C11.0709 1.87437 8.6508 2.48844 6.64146 3.8461C4.63213 5.20375 3.15943 7.21992 2.47727 9.54701C1.79512 11.8741 1.94624 14.3663 2.9046 16.5939C3.00449 16.8009 3.03726 17.034 2.99835 17.2605L2.08169 21.6668C2.04637 21.8357 2.05358 22.0108 2.10267 22.1762C2.15177 22.3417 2.2412 22.4924 2.36294 22.6147C2.46273 22.7138 2.58156 22.7916 2.71224 22.8435C2.84293 22.8955 2.98278 22.9204 3.12335 22.9168H3.33169L7.79002 22.021C8.01661 21.9937 8.2464 22.026 8.45669 22.1147C10.6843 23.0731 13.1765 23.2242 15.5036 22.542C17.8306 21.8599 19.8468 20.3872 21.2045 18.3778C22.5621 16.3685 23.1762 13.9485 22.9408 11.5349C22.7054 9.12134 21.6353 6.86553 19.915 5.15637L19.8629 5.13554ZM8.33169 13.5418C8.12566 13.5418 7.92427 13.4807 7.75297 13.3662C7.58167 13.2518 7.44815 13.0891 7.36931 12.8988C7.29047 12.7084 7.26984 12.499 7.31004 12.2969C7.35023 12.0948 7.44944 11.9092 7.59512 11.7636C7.7408 11.6179 7.9264 11.5187 8.12847 11.4785C8.33053 11.4383 8.53998 11.4589 8.73032 11.5378C8.92066 11.6166 9.08334 11.7501 9.1978 11.9214C9.31226 12.0927 9.37335 12.2941 9.37335 12.5001C9.37335 12.7764 9.26361 13.0413 9.06826 13.2367C8.87291 13.432 8.60795 13.5418 8.33169 13.5418ZM12.4984 13.5418C12.2923 13.5418 12.0909 13.4807 11.9196 13.3662C11.7483 13.2518 11.6148 13.0891 11.536 12.8988C11.4571 12.7084 11.4365 12.499 11.4767 12.2969C11.5169 12.0948 11.6161 11.9092 11.7618 11.7636C11.9075 11.6179 12.0931 11.5187 12.2951 11.4785C12.4972 11.4383 12.7066 11.4589 12.897 11.5378C13.0873 11.6166 13.25 11.7501 13.3645 11.9214C13.4789 12.0927 13.54 12.2941 13.54 12.5001C13.54 12.7764 13.4303 13.0413 13.2349 13.2367C13.0396 13.432 12.7746 13.5418 12.4984 13.5418ZM16.665 13.5418C16.459 13.5418 16.2576 13.4807 16.0863 13.3662C15.915 13.2518 15.7815 13.0891 15.7026 12.8988C15.6238 12.7084 15.6032 12.499 15.6434 12.2969C15.6836 12.0948 15.7828 11.9092 15.9285 11.7636C16.0741 11.6179 16.2597 11.5187 16.4618 11.4785C16.6639 11.4383 16.8733 11.4589 17.0636 11.5378C17.254 11.6166 17.4167 11.7501 17.5311 11.9214C17.6456 12.0927 17.7067 12.2941 17.7067 12.5001C17.7067 12.7764 17.5969 13.0413 17.4016 13.2367C17.2062 13.432 16.9413 13.5418 16.665 13.5418Z" fill="black"/>
</svg>
