<svg width="90" height="90" viewBox="0 0 90 90" fill="none" xmlns="http://www.w3.org/2000/svg">
<circle cx="45" cy="45" r="45" fill="white"/>
<circle cx="45" cy="45" r="44.5" stroke="#036666" stroke-opacity="0.2"/>
<g clip-path="url(#clip0_27_24)">
<path d="M61.7022 29.2979C57.942 25.5133 52.9793 23.1591 47.6694 22.6412C42.3596 22.1234 37.0355 23.4743 32.6149 26.4612C28.1944 29.448 24.9545 33.8836 23.4537 39.0032C21.953 44.1228 22.2854 49.6056 24.3938 54.5063C24.6136 54.9618 24.6857 55.4745 24.6001 55.9729L22.5834 65.6667C22.5057 66.0384 22.5216 66.4235 22.6296 66.7875C22.7376 67.1515 22.9343 67.483 23.2022 67.7521C23.4217 67.9701 23.6831 68.1413 23.9706 68.2555C24.2582 68.3698 24.5658 68.4246 24.8751 68.4167H25.3334L35.1418 66.4459C35.6403 66.3859 36.1458 66.457 36.6084 66.6521C41.5092 68.7605 46.9919 69.093 52.1115 67.5922C57.2311 66.0915 61.6667 62.8516 64.6535 58.431C67.6404 54.0105 68.9913 48.6864 68.4735 43.3765C67.9556 38.0667 65.6014 33.1039 61.8168 29.3438L61.7022 29.2979ZM36.3334 47.7917C35.8802 47.7917 35.4371 47.6573 35.0602 47.4055C34.6834 47.1537 34.3896 46.7958 34.2162 46.377C34.0427 45.9583 33.9974 45.4975 34.0858 45.053C34.1742 44.6084 34.3925 44.2001 34.713 43.8796C35.0335 43.5591 35.4418 43.3408 35.8863 43.2524C36.3309 43.164 36.7917 43.2094 37.2104 43.3828C37.6292 43.5563 37.9871 43.85 38.2389 44.2269C38.4907 44.6037 38.6251 45.0468 38.6251 45.5C38.6251 46.1078 38.3836 46.6907 37.9539 47.1205C37.5241 47.5503 36.9412 47.7917 36.3334 47.7917ZM45.5001 47.7917C45.0468 47.7917 44.6038 47.6573 44.2269 47.4055C43.85 47.1537 43.5563 46.7958 43.3829 46.377C43.2094 45.9583 43.164 45.4975 43.2525 45.053C43.3409 44.6084 43.5591 44.2001 43.8796 43.8796C44.2001 43.5591 44.6085 43.3408 45.053 43.2524C45.4975 43.164 45.9583 43.2094 46.3771 43.3828C46.7958 43.5563 47.1537 43.85 47.4055 44.2269C47.6574 44.6037 47.7918 45.0468 47.7918 45.5C47.7918 46.1078 47.5503 46.6907 47.1205 47.1205C46.6908 47.5503 46.1079 47.7917 45.5001 47.7917ZM54.6668 47.7917C54.2135 47.7917 53.7704 47.6573 53.3936 47.4055C53.0167 47.1537 52.723 46.7958 52.5495 46.377C52.3761 45.9583 52.3307 45.4975 52.4191 45.053C52.5075 44.6084 52.7258 44.2001 53.0463 43.8796C53.3668 43.5591 53.7751 43.3408 54.2197 43.2524C54.6642 43.164 55.125 43.2094 55.5437 43.3828C55.9625 43.5563 56.3204 43.85 56.5722 44.2269C56.824 44.6037 56.9584 45.0468 56.9584 45.5C56.9584 46.1078 56.717 46.6907 56.2872 47.1205C55.8574 47.5503 55.2745 47.7917 54.6668 47.7917Z" fill="#036666"/>
</g>
<defs>
<clipPath id="clip0_27_24">
<rect width="55" height="55" fill="white" transform="translate(18 18)"/>
</clipPath>
</defs>
</svg>
