<svg width="30" height="30" viewBox="0 0 30 30" fill="none" xmlns="http://www.w3.org/2000/svg">
<path d="M15 23.75V27.5M15 23.75C10.1675 23.75 6.25 19.8325 6.25 15V13.75M15 23.75C17.5408 23.75 19.8287 22.667 21.4272 20.9375M15 27.5H18.75M15 27.5H11.25M3.75 3.4375L26.25 25.9375M23.75 13.75V15C23.75 16.029 23.5724 17.0165 23.2461 17.9336M20 14.6875V7.5C20 4.73858 17.7614 2.5 15 2.5C13.0555 2.5 11.3703 3.60997 10.5434 5.23086M10 10V15C10 17.7614 12.2386 20 15 20C16.4355 20 17.7297 19.3951 18.6416 18.4262"  stroke-width="2" stroke-linecap="round" stroke-linejoin="round"/>
</svg>
