<svg width="40" height="41" viewBox="0 0 40 41" fill="none" xmlns="http://www.w3.org/2000/svg">
<path fill-rule="evenodd" clip-rule="evenodd" d="M25 3.625H21.25V3C21.25 2.31 20.6875 1.75 20 1.75C19.3125 1.75 18.75 2.31 18.75 3V3.625H15V3C15 2.31 14.4375 1.75 13.75 1.75C13.0625 1.75 12.5 2.31 12.5 3V3.625H11.25C9.925 3.625 8.65005 4.15188 7.71255 5.08938C6.77505 6.0275 6.25 7.29937 6.25 8.62562C6.25 15.2131 6.25001 28.6187 6.25626 33.4181C6.25626 35.9694 8.06878 38.1213 10.5 38.5013C13.6688 38.9869 16.8313 39.25 20 39.25C20.5 39.25 20.9999 39.2438 21.4999 39.2313L21.5813 39.2281C24.225 39.1562 26.8625 38.9062 29.5 38.5019C31.9312 38.1219 33.7437 35.9694 33.7437 33.4175C33.7437 31.8969 33.75 29.51 33.75 26.75V26.5963C33.75 23.4888 33.7437 13.9725 33.7437 8.62438C33.7437 5.86313 31.5062 3.62563 28.7437 3.62563H27.5V3C27.5 2.31 26.9375 1.75 26.25 1.75C25.5625 1.75 25 2.31 25 3V3.625ZM31.2437 30.7012L25.6688 36.4656C26.8188 36.3531 27.9688 36.2075 29.1188 36.0312C30.3501 35.8369 31.2437 34.7163 31.2437 33.4175V30.7012ZM28.925 29.5088C27.9063 29.6113 26.8937 29.7369 25.8812 29.885C24.6562 30.0687 23.75 31.12 23.75 32.3575V34.855L28.925 29.5088ZM13.75 29.25H18.75C19.4375 29.25 20 28.69 20 28C20 27.31 19.4375 26.75 18.75 26.75H13.75C13.0625 26.75 12.5 27.31 12.5 28C12.5 28.69 13.0625 29.25 13.75 29.25ZM13.75 24.25H26.25C26.9375 24.25 27.5 23.69 27.5 23C27.5 22.31 26.9375 21.75 26.25 21.75H13.75C13.0625 21.75 12.5 22.31 12.5 23C12.5 23.69 13.0625 24.25 13.75 24.25ZM13.75 19.25H26.25C26.9375 19.25 27.5 18.69 27.5 18C27.5 17.31 26.9375 16.75 26.25 16.75H13.75C13.0625 16.75 12.5 17.31 12.5 18C12.5 18.69 13.0625 19.25 13.75 19.25ZM13.75 14.25H26.25C26.9375 14.25 27.5 13.69 27.5 13C27.5 12.31 26.9375 11.75 26.25 11.75H13.75C13.0625 11.75 12.5 12.31 12.5 13C12.5 13.69 13.0625 14.25 13.75 14.25Z" />
</svg>
