<svg width="35" height="36" viewBox="0 0 35 36" fill="none" xmlns="http://www.w3.org/2000/svg">
<path d="M5.10383 20.7889V20.4907C5.15475 19.5358 5.45612 18.6106 5.97804 17.8071C6.84832 16.832 7.4466 15.6476 7.71342 14.3716C7.77866 13.3992 7.71342 12.401 7.77866 11.4157C8.24838 6.6837 12.9326 3.41669 17.4211 3.41669H17.5516C22.1183 3.41669 26.6851 6.6837 27.1809 11.4157C27.2723 12.388 27.1809 13.3992 27.2592 14.3716C27.5196 15.6498 28.1187 16.8359 28.9946 17.8071C29.5392 18.6015 29.8509 19.5306 29.895 20.4907V20.7889C29.9029 22.0824 29.4395 23.335 28.5901 24.3152C27.5005 25.4775 26.0194 26.2018 24.4278 26.3506C19.7803 26.9469 15.0749 26.9469 10.4274 26.3506C8.85436 26.1895 7.39377 25.4662 6.31729 24.3152C5.49458 23.3256 5.06317 22.0719 5.10383 20.7889Z" />
<path opacity="0.4" d="M19.1956 28.3472C18.2692 28.2823 17.5124 28.3472 16.7556 28.3472C16.0051 28.3342 15.2558 28.4126 14.5244 28.5805C13.8981 28.7231 13.2196 29.0602 13.2196 29.7732C13.2853 30.4624 13.6589 31.0858 14.2373 31.4716C15.3516 32.3225 16.7557 32.7085 18.1517 32.5476C19.5087 32.4476 20.749 31.7481 21.5311 30.6419C21.9635 30.0814 21.8649 29.2802 21.3093 28.8398C20.6515 28.5183 19.9287 28.3498 19.1956 28.3472Z" />
</svg>
