<svg width="42" height="17" viewBox="0 0 42 17" fill="none" xmlns="http://www.w3.org/2000/svg">
<path d="M21 0.556641C23.5312 0.556641 25.9629 0.738281 28.2949 1.10156C30.627 1.46484 32.7363 2.02734 34.623 2.78906C36.5098 3.55078 38.0449 4.5293 39.2285 5.72461C40.0254 6.52148 40.6348 7.41211 41.0566 8.39648C41.4902 9.36914 41.6953 10.4473 41.6719 11.6309C41.6367 13.1309 41.1973 14.291 40.3535 15.1113C40.0137 15.4395 39.6211 15.6914 39.1758 15.8672C38.7422 16.0312 38.2676 16.0664 37.752 15.9727L31.3184 14.8828C30.8262 14.8008 30.4043 14.6836 30.0527 14.5312C29.7012 14.3789 29.4141 14.1914 29.1914 13.9688C28.9102 13.6875 28.7168 13.3359 28.6113 12.9141C28.5059 12.4922 28.4473 12.0059 28.4355 11.4551L28.418 9.66211C28.4062 9.41602 28.3125 9.19922 28.1367 9.01172C28.043 8.91797 27.9375 8.84766 27.8203 8.80078C27.7148 8.74219 27.6152 8.70117 27.5215 8.67773C26.9121 8.50195 26.0332 8.36719 24.8848 8.27344C23.7363 8.16797 22.4414 8.11523 21 8.11523C19.5586 8.11523 18.2578 8.17383 17.0977 8.29102C15.9492 8.39648 15.0762 8.51953 14.4785 8.66016C14.3848 8.68359 14.2734 8.72461 14.1445 8.7832C14.0273 8.83008 13.9277 8.90625 13.8457 9.01172C13.6465 9.22266 13.5469 9.44531 13.5469 9.67969V11.4551C13.5469 12.0059 13.4941 12.4922 13.3887 12.9141C13.2832 13.3359 13.084 13.6875 12.791 13.9688C12.3457 14.4141 11.6426 14.7188 10.6816 14.8828L4.16016 15.9902C3.65625 16.0723 3.19336 16.0371 2.77148 15.8848C2.36133 15.7207 1.99805 15.4805 1.68164 15.1641C1.25977 14.7539 0.9375 14.2441 0.714844 13.6348C0.503906 13.0254 0.380859 12.3633 0.345703 11.6484C0.287109 10.4648 0.457031 9.38672 0.855469 8.41406C1.25391 7.42969 1.85742 6.5332 2.66602 5.72461C3.84961 4.54102 5.39062 3.56836 7.28906 2.80664C9.1875 2.04492 11.3086 1.48242 13.6523 1.11914C16.0078 0.744141 18.457 0.556641 21 0.556641Z" fill="white"/>
</svg>
