<svg width="18" height="16" viewBox="0 0 18 16" fill="none" xmlns="http://www.w3.org/2000/svg">
<path fill-rule="evenodd" clip-rule="evenodd" d="M18 3.38144C18 1.51392 16.588 0 14.8462 0H3.15385C1.41202 0 0 1.51392 0 3.38144V12.6186C0 14.4861 1.41202 16 3.15385 16H14.8462C16.588 16 18 14.4861 18 12.6186V3.38144ZM13.1568 9.13343L13.2283 9.06652C13.4775 8.86376 13.8287 8.8639 14.0791 9.07891L17.0765 11.6529L17.0773 12.6187C17.0773 13.9396 16.0785 15.0105 14.8465 15.0105L3.59648 15.0096L6.73604 11.6441L6.80229 11.5815C7.05555 11.3713 7.41619 11.3734 7.66836 11.5983L8.81579 12.6219L8.89602 12.6853C9.22692 12.9162 9.66981 12.872 9.95529 12.5659L13.1568 9.13343ZM14.8459 0.990234H3.15362C1.9216 0.990234 0.922852 2.06106 0.922852 3.38199V12.6191C0.922852 13.6628 1.54632 14.5503 2.4157 14.8769L6.08277 10.9446C6.6404 10.3468 7.5126 10.2723 8.14852 10.7482L8.25818 10.8379L9.35165 11.8133L12.5035 8.43399C13.0534 7.8444 13.9108 7.76277 14.5459 8.22042L14.6555 8.30678L17.0759 10.3849L17.0767 3.38199C17.0767 2.06106 16.0779 0.990234 14.8459 0.990234ZM9.30294 11.8657L9.35257 11.8125L9.40653 11.8607C9.37596 11.8334 9.33105 11.8356 9.30294 11.8657ZM5.53806 3.5459C6.68511 3.5459 7.61498 4.54287 7.61498 5.7727C7.61498 7.00253 6.68511 7.99951 5.53806 7.99951C4.391 7.99951 3.46113 7.00253 3.46113 5.7727C3.46113 4.54287 4.391 3.5459 5.53806 3.5459ZM4.38398 5.77325C4.38398 5.09001 4.90058 4.53613 5.53783 4.53613C6.17508 4.53613 6.69168 5.09001 6.69168 5.77325C6.69168 6.45649 6.17508 7.01036 5.53783 7.01036C4.90058 7.01036 4.38398 6.45649 4.38398 5.77325Z"  fill-opacity="0.7"/>
</svg>
