<svg width="30" height="30" viewBox="0 0 30 30" fill="none" xmlns="http://www.w3.org/2000/svg">
<path d="M26.795 11.4826L21.7975 6.45759C20.8575 5.51259 19.2188 5.50259 18.26 6.45009C18.015 6.69509 17.8225 6.99509 17.7375 7.23634C16.9212 8.93884 16.045 10.0051 14.92 10.6451L14.6488 10.7763C13.4388 11.3826 11.7925 12.0001 8.75 12.0001C8.4175 12.0001 8.09875 12.0651 7.7925 12.1901C7.18143 12.4469 6.69571 12.9335 6.44 13.5451C6.1912 14.1562 6.1912 14.8403 6.44 15.4513C6.57 15.7626 6.7525 16.0401 6.98375 16.2651L11.0275 20.3088L6.25 27.0001L12.94 22.2226L16.9738 26.2563C17.2063 26.4926 17.4812 26.6801 17.7937 26.8076C18.0967 26.935 18.422 27.0007 18.7506 27.0007C19.0793 27.0007 19.4046 26.935 19.7075 26.8076C20.0111 26.6845 20.2869 26.5018 20.5188 26.2704C20.7507 26.039 20.9338 25.7634 21.0575 25.4601C21.1863 25.1576 21.2512 24.8263 21.2512 24.5001C21.2512 21.4551 21.8688 19.8101 22.4738 18.5988C23.0938 17.3588 24.185 16.4138 25.9163 15.5813C26.255 15.4513 26.5538 15.2613 26.805 15.0101C27.2685 14.5395 27.5275 13.9049 27.5257 13.2443C27.5238 12.5837 27.2612 11.9506 26.795 11.4826ZM20.235 17.4838C19.2112 19.5376 18.75 21.6963 18.7413 24.4888L8.75 14.5001C11.4237 14.5001 13.5175 14.0813 15.495 13.1451L15.7887 13.0138C17.5375 12.1401 18.8737 10.6476 20.0237 8.22134L24.9288 13.2851C22.6 14.4013 21.1087 15.7351 20.235 17.4838Z" fill="black" fill-opacity="0.5"/>
</svg>
