<svg width="30" height="30" viewBox="0 0 30 30" fill="none" xmlns="http://www.w3.org/2000/svg">
<path d="M20.9113 5.33871C20.6775 5.1037 20.36 4.97116 20.0285 4.97022C19.6971 4.96928 19.3788 5.10003 19.1437 5.33371C19.0197 5.46012 18.9239 5.61135 18.8625 5.77746C17.8225 7.94746 16.6775 9.17121 15.2325 9.89371C13.6112 10.6937 11.75 11.25 8.75 11.25C8.50323 11.2511 8.26226 11.3249 8.0571 11.462C7.85194 11.5992 7.69167 11.7936 7.59625 12.0212C7.50179 12.2497 7.47714 12.5011 7.52541 12.7436C7.57369 12.9861 7.69273 13.2088 7.8675 13.3837L11.9212 17.4375L6.25 25L13.8125 19.3287L17.865 23.3812C17.9811 23.4983 18.1197 23.5905 18.2725 23.6525C18.425 23.7162 18.5875 23.75 18.75 23.75C18.9125 23.75 19.075 23.7162 19.2275 23.6525C19.4561 23.5587 19.6516 23.399 19.7892 23.1938C19.9267 22.9886 20.0001 22.747 20 22.5C20 19.5 20.555 17.6387 21.3538 16.0425C22.075 14.5975 23.2987 13.4525 25.47 12.4125C25.636 12.3516 25.787 12.2557 25.9125 12.1312C26.1462 11.8961 26.2769 11.5779 26.276 11.2464C26.275 10.915 26.1425 10.5975 25.9075 10.3637L20.9113 5.33871Z" fill="#036666"/>
</svg>
