<svg width="35" height="35" viewBox="0 0 35 35" fill="none" xmlns="http://www.w3.org/2000/svg">
<path d="M35 17.5C35 19.7981 34.5473 22.0738 33.6679 24.197C32.7884 26.3202 31.4994 28.2493 29.8744 29.8744C28.2493 31.4994 26.3202 32.7884 24.197 33.6679C22.0738 34.5473 19.7981 35 17.5 35C15.2019 35 12.9262 34.5473 10.803 33.6679C8.67984 32.7884 6.75066 31.4994 5.12563 29.8744C3.50061 28.2493 2.21156 26.3202 1.33211 24.197C0.45265 22.0738 -2.00909e-07 19.7981 0 17.5L17.5 17.5H35Z" fill="#036666"/>
<path d="M0 17.5C0 15.2019 0.452651 12.9262 1.33211 10.803C2.21157 8.67984 3.50061 6.75066 5.12563 5.12563C6.75066 3.50061 8.67984 2.21157 10.803 1.33211C12.9262 0.452651 15.2019 -1.00455e-07 17.5 0C19.7981 1.00455e-07 22.0738 0.452651 24.197 1.33211C26.3202 2.21157 28.2493 3.50061 29.8744 5.12563C31.4994 6.75066 32.7884 8.67984 33.6679 10.803C34.5473 12.9262 35 15.2019 35 17.5L17.5 17.5L0 17.5Z" fill="#0A7C7C"/>
<rect x="10.7695" y="24.9023" width="12.1154" height="2.69231" rx="1.34615" transform="rotate(-90 10.7695 24.9023)" fill="white"/>
<rect x="16.1543" y="24.9023" width="16.8269" height="2.69231" rx="1.34615" transform="rotate(-90 16.1543 24.9023)" fill="white"/>
<rect x="21.5391" y="24.9023" width="8.75" height="2.69231" rx="1.34615" transform="rotate(-90 21.5391 24.9023)" fill="white"/>
</svg>
