<svg width="24" height="26" viewBox="0 0 24 26" fill="none" xmlns="http://www.w3.org/2000/svg">
<path fill-rule="evenodd" clip-rule="evenodd" d="M12.0001 0.333252C7.95001 0.333252 4.66683 3.61651 4.66683 7.66658C4.66683 10.1859 5.93718 12.4085 7.87225 13.7287C3.38617 15.372 0.154732 19.6172 0.00533413 24.6368C-0.0110959 25.1889 0.423102 25.6497 0.975142 25.6661C1.52718 25.6826 1.98802 25.2484 2.00445 24.6963C2.16463 19.3142 6.57863 14.9999 11.9999 14.9999C17.4212 14.9999 21.8352 19.3142 21.9954 24.6963C22.0119 25.2484 22.4727 25.6826 23.0247 25.6661C23.5768 25.6497 24.011 25.1889 23.9945 24.6368C23.8451 19.6172 20.6138 15.3721 16.1278 13.7287C18.0629 12.4085 19.3333 10.1859 19.3333 7.66658C19.3333 3.61651 16.0501 0.333252 12.0001 0.333252ZM6.66683 7.66658C6.66683 4.72105 9.05461 2.33325 12.0001 2.33325C14.9455 2.33325 17.3333 4.72105 17.3333 7.66658C17.3333 10.6121 14.9455 12.9999 12.0001 12.9999C9.05461 12.9999 6.66683 10.6121 6.66683 7.66658Z" />
</svg>
