<svg width="40" height="41" viewBox="0 0 40 41" fill="none" xmlns="http://www.w3.org/2000/svg">
<path d="M28.3751 29.1249C28.5001 29.1561 28.5626 29.1874 28.6564 29.1874C28.9376 29.1874 29.0939 29.0624 29.1876 28.9686C29.2814 28.8749 29.4064 28.6874 29.4064 28.4061C29.3751 25.3436 31.3126 22.6874 34.2189 21.7811C34.2814 21.7499 34.3751 21.7186 34.4376 21.6561C34.6564 21.4999 34.7189 21.2811 34.7501 21.1561C34.7814 20.9999 34.7501 20.7811 34.5939 20.5624C32.7814 18.1249 32.7814 14.8436 34.5939 12.4061L34.6876 12.2811C34.6876 12.2499 34.7189 12.2186 34.7189 12.1874C34.8126 11.9374 34.7189 11.7186 34.6564 11.5936C34.5939 11.4686 34.4689 11.2811 34.1876 11.2186C31.3126 10.3124 29.3751 7.65614 29.4064 4.62489C29.4064 4.49989 29.4064 4.43739 29.3751 4.34364C29.2814 4.09364 29.1251 3.96864 28.9689 3.90614C28.8439 3.84364 28.6251 3.78114 28.3751 3.87489C27.6564 4.12489 26.9064 4.24989 26.1876 4.24989C23.9689 4.24989 21.8751 3.18739 20.5939 1.37489C20.5314 1.31239 20.4689 1.24989 20.4064 1.18739C20.0626 0.937387 19.5626 1.03114 19.3126 1.37489C18.0314 3.18739 15.9376 4.24989 13.7501 4.24989C13.0001 4.24989 12.2501 4.12489 11.5626 3.87489C11.4689 3.84364 11.4064 3.84364 11.3126 3.84364C11.0626 3.84364 10.8751 3.96864 10.7814 4.06239C10.6876 4.15614 10.5626 4.34364 10.5626 4.62489C10.5939 7.65614 8.65636 10.3124 5.75011 11.2186C5.65636 11.2499 5.59386 11.2811 5.50011 11.3436C5.15636 11.5936 5.09386 12.0936 5.34386 12.4374C7.15636 14.8749 7.15636 18.1561 5.34386 20.5936C5.28136 20.6561 5.25011 20.7499 5.21886 20.8124C5.12511 21.0624 5.21886 21.2811 5.28136 21.4061C5.34386 21.5311 5.50011 21.7186 5.75011 21.7811C8.65636 22.7186 10.5626 25.3749 10.5314 28.3749C10.5314 28.4686 10.5314 28.5624 10.5626 28.6561C10.6564 28.9061 10.8126 29.0311 10.9689 29.0936C11.0939 29.1561 11.3126 29.2186 11.5626 29.1249C12.3126 28.8749 13.0626 28.7499 13.7814 28.7499C15.9689 28.7499 18.0314 29.7811 19.3439 31.6249C19.4064 31.6874 19.4689 31.7499 19.5314 31.8124C19.7501 31.9686 19.9689 31.9686 20.1251 31.9374C20.2814 31.9061 20.4689 31.8436 20.6251 31.6249C22.3751 29.1561 25.5001 28.1561 28.3751 29.1249ZM20.3751 24.0624C20.2189 24.4374 19.6876 24.4374 19.5314 24.0624C18.0939 20.8124 15.5314 18.2499 12.4064 16.8749C12.0314 16.7186 12.0314 16.1874 12.4064 16.0311C15.6251 14.6561 18.1876 12.1249 19.5626 8.90614C19.7189 8.53114 20.2501 8.53114 20.4064 8.90614C21.7814 12.1249 24.3439 14.6874 27.5626 16.0311C27.9376 16.1874 27.9376 16.7186 27.5626 16.8749C24.3439 18.3436 21.7501 20.9374 20.3751 24.0624Z" />
<path d="M12.125 30.8125C11.5 31.0313 10.8438 30.9688 10.2188 30.7188L10.1562 30.6875C9.5625 30.375 9.09375 29.875 8.875 29.25C8.8125 28.9375 8.75 28.625 8.78125 28.3125C8.78125 27.0938 8.375 25.9688 7.65625 25.0938L1.40625 34.6875H6.96875L9.5625 40L15.5312 30.8125C15 30.625 14.4062 30.5 13.8125 30.5C13.25 30.5313 12.6875 30.625 12.125 30.8125ZM32.3438 25.0938C31.5938 26 31.1875 27.125 31.2188 28.375C31.2188 29.0625 30.9688 29.7188 30.4688 30.1875C30.0312 30.625 29.4062 30.9063 28.7812 30.9375C28.4688 30.9688 28.125 30.9063 27.7812 30.7813C26.6875 30.4063 25.5313 30.4375 24.4688 30.8125L30.4688 40L33.0625 34.6875H38.625L32.3438 25.0938Z" />
</svg>
