<svg width="18" height="22" viewBox="0 0 18 22" fill="none" xmlns="http://www.w3.org/2000/svg">
<path d="M17.9531 5.88355C17.9602 5.83667 17.9484 5.78511 17.918 5.73823C17.9156 5.73589 17.9133 5.7312 17.9109 5.72886C17.9086 5.72651 17.9063 5.72183 17.9039 5.71948C17.9016 5.71714 17.8992 5.71245 17.8969 5.71011L17.8898 5.70308C17.8898 5.70308 17.8898 5.70073 17.8875 5.70073L17.2008 5.01401C16.6711 4.48198 16.1391 3.9523 15.6094 3.42261C15.0117 2.82495 14.4164 2.22964 13.8211 1.63198L12.5414 0.352295C12.4664 0.277295 12.3938 0.197607 12.3141 0.124951C12.2227 0.0405761 12.1219 0.0546386 12.0117 0.0546386H1.85157C1.45782 0.0546386 1.06172 0.0194823 0.703129 0.218701C0.295317 0.448389 0.0515666 0.88667 0.0468791 1.35073V20.5414C0.0468791 20.5812 0.0445353 20.6187 0.0468791 20.6585C0.0539103 21.3031 0.534379 21.8515 1.17422 21.9335C1.38985 21.9617 1.61485 21.9453 1.83282 21.9453H16.2258C16.4977 21.9453 16.7977 21.971 17.0578 21.8843C17.5898 21.7085 17.9484 21.214 17.9555 20.6539V5.88355H17.9531ZM14.4188 17.8437H3.58125C3.31875 17.8437 3.12422 17.6281 3.1125 17.375C3.10079 17.1218 3.33516 16.9062 3.58125 16.9062H4.3125V12.5281C4.3125 12.3992 4.2961 12.2421 4.35704 12.1226C4.50235 11.8343 4.86094 11.8906 5.12813 11.8906H6.11954C6.22032 11.8906 6.32344 11.8929 6.42422 11.8953C6.43594 11.8953 6.45 11.8953 6.46172 11.8976C6.46875 11.8976 6.47579 11.9 6.48282 11.9C6.48985 11.9 6.49688 11.9023 6.50391 11.9023C6.5086 11.9023 6.51329 11.9046 6.51797 11.9046C6.52969 11.907 6.54141 11.9093 6.55313 11.914H6.55547C6.57188 11.9187 6.58829 11.9257 6.60469 11.9328C6.72188 11.9843 6.80391 12.0851 6.83907 12.2187C6.8461 12.2398 6.85782 12.2656 6.86016 12.2914C6.86016 12.296 6.8625 12.2984 6.8625 12.3007V12.3031C6.8625 12.3101 6.8625 12.3171 6.86485 12.3265C6.86485 12.3289 6.8625 12.3312 6.8625 12.3335V16.9039H7.82344V16.8781C7.82344 16.8382 7.82813 16.796 7.82813 16.7562C7.82813 16.714 7.83047 16.6718 7.83047 16.6296C7.83282 16.5031 7.8375 16.3765 7.83985 16.2523C7.83985 16.2171 7.84219 16.1796 7.84219 16.1445C7.84219 16.114 7.84219 16.0859 7.84454 16.0554V9.72495C7.84454 9.66636 7.83985 9.61011 7.83985 9.55151C7.83985 9.53042 7.84219 9.50698 7.84454 9.48589C7.84688 9.47183 7.84922 9.46011 7.85157 9.44839L7.86563 9.39917C7.86797 9.39448 7.87032 9.38745 7.87266 9.38276L7.87969 9.3687L7.90079 9.32651C7.90313 9.32417 7.90313 9.31948 7.90547 9.31714C7.91016 9.31011 7.91485 9.30073 7.92188 9.2937C7.98516 9.20464 8.0836 9.1437 8.20547 9.1273C8.21719 9.12495 8.23125 9.12495 8.24532 9.12261C8.2875 9.12026 8.33204 9.11792 8.37422 9.11792H8.40469C8.64141 9.11323 8.87813 9.12026 9.11485 9.12495H9.86719C9.90235 9.12495 9.93516 9.12026 9.97032 9.12261C10.0148 9.12495 10.057 9.13198 10.0945 9.14605C10.0969 9.14605 10.1016 9.14839 10.1039 9.14839C10.1344 9.15776 10.1602 9.17183 10.1859 9.18823C10.1953 9.19526 10.2047 9.19995 10.2117 9.20698C10.2211 9.21401 10.2281 9.22105 10.2375 9.22808L10.2492 9.2398L10.2609 9.25151C10.275 9.26792 10.2891 9.28433 10.3008 9.30308C10.3031 9.30776 10.3078 9.31245 10.3102 9.31714C10.3195 9.3312 10.3266 9.34526 10.3336 9.36167C10.3359 9.36636 10.3383 9.37105 10.3406 9.37808C10.35 9.39917 10.357 9.42026 10.3617 9.4437C10.3641 9.45073 10.3664 9.46011 10.3688 9.46714C10.3711 9.47183 10.3711 9.47886 10.3734 9.48355C10.3758 9.49761 10.3781 9.51167 10.3781 9.52808V16.9062H11.3719C11.3719 16.6062 11.3859 16.3062 11.3859 16.0062V10.7914C11.3859 10.7328 11.3813 10.6765 11.3977 10.6179C11.4609 10.3882 11.6648 10.3203 11.8758 10.3203H13.4531C13.5938 10.3203 13.7156 10.3625 13.8 10.4468C13.8117 10.4585 13.8234 10.4726 13.8352 10.4867C13.8516 10.5078 13.8656 10.5312 13.8773 10.557C13.8891 10.5828 13.8984 10.6109 13.9078 10.639C13.9148 10.6578 13.9172 10.6765 13.9195 10.6976V16.9062H14.4164C14.6789 16.9062 14.8734 17.1218 14.8852 17.375C14.8969 17.6281 14.6625 17.8437 14.4188 17.8437ZM13.2539 5.63276H12.9445C12.9258 5.63276 12.9047 5.63042 12.8859 5.63042C12.8578 5.62339 12.8297 5.6187 12.8016 5.61167C12.7781 5.60464 12.675 5.58355 12.7406 5.59292C12.7477 5.59292 12.7547 5.59526 12.7594 5.59526C12.75 5.59292 12.7359 5.58823 12.7266 5.58355C12.7031 5.57183 12.682 5.56011 12.6586 5.54604L12.6234 5.52261C12.6188 5.51558 12.5602 5.4687 12.5484 5.45933C12.5438 5.45464 12.5227 5.43589 12.5039 5.41714C12.5016 5.41245 12.4992 5.40776 12.4945 5.40308L12.4875 5.38901C12.4781 5.3773 12.4711 5.36323 12.4617 5.35151C12.457 5.34448 12.4383 5.31401 12.4242 5.28823C12.4219 5.28355 12.4195 5.27651 12.4172 5.26714C12.4148 5.25542 12.4102 5.24605 12.4055 5.23433C12.4031 5.22964 12.4031 5.2273 12.4008 5.22261C12.3914 5.19448 12.4008 5.16636 12.3773 5.13823V5.10776C12.375 5.09605 12.3727 5.08901 12.3727 5.08433C12.3727 5.08667 12.375 5.09605 12.3773 5.10308C12.3773 5.08667 12.375 5.07261 12.375 5.06323C12.375 5.02339 12.375 4.98589 12.3773 4.94605V2.60933C12.3773 2.29292 12.382 1.97651 12.3844 1.66011L13.4719 2.74761L16.357 5.63276H13.2539Z" fill="white"/>
</svg>
