<svg width="25" height="25" viewBox="0 0 25 25" fill="none" xmlns="http://www.w3.org/2000/svg">
<path d="M15.6684 14.8267C16.609 13.6881 17.203 12.2277 17.203 10.6188C17.203 7.00493 14.2575 4.05939 10.6436 4.05939C7.02977 4.05939 4.08423 7.00493 4.08423 10.6188C4.08423 14.2327 7.02977 17.1782 10.6436 17.1782C12.2278 17.1782 13.7129 16.6089 14.8516 15.6435L19.9506 20.7426C20.0743 20.8663 20.2228 20.9158 20.3714 20.9158C20.5199 20.9158 20.6684 20.8663 20.7921 20.7426C21.0149 20.5198 21.0149 20.1237 20.7921 19.901L15.6684 14.8267ZM10.6189 15.9901C7.64859 15.9901 5.24759 13.5891 5.24759 10.6188C5.24759 7.6485 7.64859 5.24751 10.6189 5.24751C13.5892 5.24751 15.9902 7.6485 15.9902 10.6188C15.9902 13.5891 13.5892 15.9901 10.6189 15.9901Z" fill="#036666"/>
</svg>
