<svg width="25" height="25" viewBox="0 0 25 25" fill="none" xmlns="http://www.w3.org/2000/svg">
<path d="M13.4367 0.00044902C14.1603 -0.0120508 14.8456 0.236695 15.3574 0.712936C15.8717 1.17418 16.1467 1.81292 16.1467 2.4879C16.1467 3.86288 17.3438 4.97661 18.8316 4.97661C19.2907 4.97661 19.7511 4.85036 20.1603 4.63787C21.435 3.98663 23.0267 4.40037 23.7503 5.56285L24.6461 7.02532C24.8698 7.40032 25 7.82531 25 8.2628C25 9.15028 24.4883 9.97652 23.6595 10.4128C23.2504 10.6253 22.9083 10.9503 22.6729 11.3265C21.9743 12.5002 22.4098 13.9864 23.6595 14.6639C24.9211 15.3502 25.3552 16.8514 24.6461 18.0376L23.7503 19.4513C23.2767 20.2251 22.3953 20.7013 21.4481 20.7013C20.9746 20.7013 20.501 20.5876 20.1076 20.3626C19.6854 20.1501 19.2263 20.0251 18.7645 20.0251C18.0541 20.0251 17.3701 20.2888 16.8715 20.7626C16.3571 21.2263 16.0809 21.8626 16.0809 22.525C16.0809 23.8875 14.8851 25 13.3973 25H11.5963C10.8846 25 10.2137 24.725 9.727 24.2625C9.22711 23.7875 8.96533 23.1625 8.96533 22.5125C8.96533 21.1376 7.78006 20.0251 6.29485 20.0251C5.8068 20.0251 5.33322 20.1501 4.92542 20.3888C4.30713 20.7126 3.57045 20.8001 2.88638 20.6376C2.20232 20.4626 1.61035 20.0376 1.25516 19.4751L0.414553 18.0626C0.0185865 17.4764 -0.0998088 16.7751 0.0856772 16.1127C0.268532 15.4502 0.743429 14.8877 1.38671 14.5502C1.79583 14.3377 2.13655 14.0252 2.37334 13.6377C3.05872 12.4627 2.62328 10.9878 1.38671 10.3003C0.136982 9.62528 -0.297134 8.1378 0.414553 6.96282L1.25516 5.56285C1.61035 4.97661 2.20232 4.55037 2.89954 4.37537C3.59807 4.20037 4.33344 4.29912 4.95173 4.63787C5.37269 4.85036 5.83311 4.96286 6.29485 4.96286C7.00523 4.96286 7.68797 4.70036 8.18786 4.23787C8.68776 3.77538 8.96533 3.13789 8.96533 2.4879C8.96533 1.11293 10.1611 0.00044902 11.6476 0.00044902H13.4367ZM13.9642 9.35153C12.583 8.81279 10.9899 9.10028 9.92433 10.0878C8.87193 11.0627 8.54305 12.5502 9.12187 13.8265C9.68885 15.1127 11.0294 15.9502 12.529 15.9502H12.5435C13.5301 15.9627 14.451 15.6014 15.1469 14.9502C15.8441 14.3127 16.2387 13.4377 16.2387 12.5252C16.2519 11.1377 15.3442 9.87527 13.9642 9.35153Z" />
</svg>
