<svg width="26" height="29" viewBox="0 0 26 29" fill="none" xmlns="http://www.w3.org/2000/svg">
<path d="M14.25 14.664C14.9973 14.2317 15.5 13.4238 15.5 12.4984C15.5 11.1177 14.3807 9.99841 13 9.99841C11.6193 9.99841 10.5 11.1177 10.5 12.4984C10.5 13.4238 11.0027 14.2317 11.75 14.664V18.1234C11.75 18.8138 12.3096 19.3734 13 19.3734C13.6904 19.3734 14.25 18.8138 14.25 18.1234L14.25 14.664Z" />
<path fill-rule="evenodd" clip-rule="evenodd" d="M12.3251 0.7942C12.7638 0.651933 13.2362 0.651933 13.6749 0.7942L23.9874 4.13879C24.8885 4.43104 25.5 5.26976 25.5 6.21868V12.4984C25.5 20.2351 20.7865 25.8795 13.7488 28.5351C13.2667 28.717 12.7333 28.717 12.2512 28.5351C5.21349 25.8795 0.500006 20.2351 0.5 12.4984V6.21833C0.5 5.26909 1.11184 4.43095 2.01265 4.1388L12.3251 0.7942ZM13.0964 2.57774C13.0337 2.55742 12.9663 2.55742 12.9036 2.57774L2.59109 5.92234C2.46119 5.96447 2.375 6.084 2.375 6.21833L2.375 12.4984C2.37501 19.3251 6.47594 24.3518 12.9132 26.7808C12.9686 26.8017 13.0314 26.8017 13.0868 26.7808C19.5241 24.3518 23.625 19.3251 23.625 12.4984V6.21868C23.625 6.08404 23.5385 5.96437 23.4089 5.92234L13.0964 2.57774Z"/>
</svg>
