<svg width="27" height="27" viewBox="0 0 27 27" fill="none" xmlns="http://www.w3.org/2000/svg">
<path d="M0.431641 9.19968V17.9689H6.27779L13.5855 25.2766V1.89199L6.27779 9.19968H0.431641ZM10.6624 8.95122V18.2174L7.49087 15.0458H3.35472V12.1228H7.49087L10.6624 8.95122ZM20.1624 13.5843C20.1624 10.9974 18.6716 8.77583 16.5086 7.69429V19.4597C18.6716 18.3928 20.1624 16.1712 20.1624 13.5843ZM16.5086 0.766602V3.77737C20.7324 5.03429 23.8163 8.95122 23.8163 13.5843C23.8163 18.2174 20.7324 22.1343 16.5086 23.3912V26.402C22.3693 25.072 26.7393 19.8397 26.7393 13.5843C26.7393 7.32891 22.3693 2.0966 16.5086 0.766602Z" fill="black"/>
</svg>
