<svg width="35" height="38" viewBox="0 0 35 38" fill="none" xmlns="http://www.w3.org/2000/svg">
<g clip-path="url(#clip0_1191_4507)">
<path d="M32.8772 5.84376H30.7321V8.82892C30.7321 9.13658 30.6144 9.43163 30.4048 9.64918C30.1953 9.86673 29.9111 9.98895 29.6148 9.98895C29.3185 9.98895 29.0343 9.86673 28.8248 9.64918C28.6153 9.43163 28.4976 9.13658 28.4976 8.82892V5.84376H18.621V8.82892C18.621 9.13658 18.5033 9.43163 18.2937 9.64918C18.0842 9.86673 17.8 9.98895 17.5037 9.98895C17.2074 9.98895 16.9232 9.86673 16.7137 9.64918C16.5042 9.43163 16.3865 9.13658 16.3865 8.82892V5.84376H6.53224V8.82892C6.53224 9.13658 6.41453 9.43163 6.205 9.64918C5.99548 9.86673 5.7113 9.98895 5.41498 9.98895C5.11867 9.98895 4.83449 9.86673 4.62496 9.64918C4.41543 9.43163 4.29772 9.13658 4.29772 8.82892V5.84376H2.12279C1.55979 5.84376 1.01985 6.07598 0.621751 6.48932C0.223651 6.90266 0 7.46327 0 8.04783L0 35.7803C0.001963 36.3643 0.226244 36.9237 0.62392 37.3366C1.0216 37.7495 1.5604 37.9824 2.12279 37.9844H32.8772C33.156 37.9844 33.432 37.9274 33.6896 37.8166C33.9471 37.7059 34.1811 37.5435 34.3783 37.3389C34.5754 37.1342 34.7317 36.8912 34.8384 36.6238C34.9451 36.3564 35 36.0698 35 35.7803V8.06329C35.003 7.77227 34.9502 7.48354 34.8447 7.21387C34.7393 6.94421 34.5833 6.69899 34.3858 6.49248C34.1883 6.28596 33.9532 6.12227 33.6942 6.0109C33.4352 5.89954 33.1575 5.84272 32.8772 5.84376ZM27.276 16.6011L15.4629 28.882C15.3595 28.9901 15.2364 29.0758 15.1009 29.1343C14.9654 29.1927 14.8201 29.2226 14.6733 29.2223C14.3773 29.2212 14.0936 29.0989 13.8838 28.882L7.72398 22.4864C7.52246 22.2663 7.4119 21.9731 7.41593 21.6694C7.41997 21.3658 7.53829 21.0759 7.74558 20.8616C7.95287 20.6474 8.23268 20.5259 8.52514 20.5232C8.81759 20.5204 9.09948 20.6366 9.31049 20.8469L14.6733 26.415L25.697 14.9771C25.9088 14.7722 26.1889 14.6606 26.4783 14.6659C26.7678 14.6712 27.0439 14.793 27.2486 15.0055C27.4533 15.2181 27.5706 15.5048 27.5757 15.8053C27.5808 16.1058 27.4734 16.3967 27.276 16.6166V16.6011Z" />
<path d="M6.53225 1.66012V5.84397H4.29773V1.64465C4.29773 1.49231 4.32663 1.34147 4.38278 1.20073C4.43892 1.05999 4.52122 0.932104 4.62497 0.824385C4.72871 0.716666 4.85188 0.631219 4.98743 0.572921C5.12298 0.514624 5.26827 0.484619 5.41499 0.484619C5.56171 0.484619 5.70699 0.514624 5.84254 0.572921C5.9781 0.631219 6.10126 0.716666 6.20501 0.824385C6.30876 0.932104 6.39105 1.05999 6.4472 1.20073C6.50335 1.34147 6.53225 1.49231 6.53225 1.64465V1.66012ZM18.621 1.66012V5.84397H16.3865V1.64465C16.3865 1.49231 16.4154 1.34147 16.4715 1.20073C16.5277 1.05999 16.61 0.932104 16.7137 0.824385C16.8175 0.716666 16.9406 0.631219 17.0762 0.572921C17.2117 0.514624 17.357 0.484619 17.5037 0.484619C17.6505 0.484619 17.7957 0.514624 17.9313 0.572921C18.0668 0.631219 18.19 0.716666 18.2938 0.824385C18.3975 0.932104 18.4798 1.05999 18.5359 1.20073C18.5921 1.34147 18.621 1.49231 18.621 1.64465V1.66012ZM30.7321 1.66012V5.84397H28.4976V1.64465C28.4976 1.33699 28.6153 1.04193 28.8248 0.824385C29.0343 0.606837 29.3185 0.484619 29.6148 0.484619C29.9111 0.484619 30.1953 0.606837 30.4048 0.824385C30.6144 1.04193 30.7321 1.33699 30.7321 1.64465V1.66012Z" />
</g>
<defs>
<clipPath id="clip0_1191_4507">
<rect width="35" height="37.5" fill="white" transform="translate(0 0.5)"/>
</clipPath>
</defs>
</svg>
