<svg width="50" height="50" viewBox="0 0 50 50" fill="none" xmlns="http://www.w3.org/2000/svg">
<path d="M8.4725 17.7825L11.225 45.0525C11.3775 46.205 16.9425 49.995 25 50C33.0625 49.995 38.6275 46.205 38.7775 45.0525L41.5325 17.7825C37.3225 20.1375 31.03 21.25 25 21.25C18.975 21.25 12.68 20.1375 8.4725 17.7825ZM32.92 3.775L30.7725 1.3975C29.9425 0.215 29.0425 0 27.29 0H22.7125C20.9625 0 20.06 0.215 19.2325 1.3975L17.085 3.775C10.66 4.8975 6 7.875 6 10.0725V10.4975C6 14.365 14.5075 17.5 25 17.5C35.495 17.5 44.0025 14.365 44.0025 10.4975V10.0725C44.0025 7.875 39.345 4.8975 32.92 3.775ZM30.175 10.85L27.5 7.5H22.5L19.83 10.85H15.58C15.58 10.85 20.235 5.2975 20.8575 4.545C21.3325 3.97 21.8175 3.75 22.4475 3.75H27.555C28.1875 3.75 28.6725 3.97 29.1475 4.545C29.7675 5.2975 34.425 10.85 34.425 10.85H30.175Z" fill="#036666"/>
</svg>
