<svg width="25" height="25" viewBox="0 0 25 25" fill="none" xmlns="http://www.w3.org/2000/svg">
<path d="M17.1875 6.875C17.1875 4.375 15.1042 2.29166 12.5 2.29166C9.89583 2.29166 7.8125 4.375 7.8125 6.875C7.8125 9.375 9.89583 11.4583 12.5 11.4583C15.1042 11.4583 17.1875 9.375 17.1875 6.875ZM9.89583 6.875C9.89583 5.52083 11.0417 4.375 12.5 4.375C13.9583 4.375 15.1042 5.52083 15.1042 6.875C15.1042 8.22916 13.9583 9.375 12.5 9.375C11.0417 9.375 9.89583 8.22916 9.89583 6.875ZM4.79166 16.9792L4.27083 18.9583C3.95833 19.8958 4.16666 20.9375 4.79166 21.7708C5.41666 22.5 6.25 22.9167 7.29166 22.9167H14.4792C15.1042 22.9167 15.5208 22.5 15.5208 21.875C15.5208 21.25 15.1042 20.8333 14.4792 20.8333H7.29166C6.875 20.8333 6.66666 20.625 6.5625 20.4167C6.25 20.2083 6.14583 19.7917 6.25 19.4792L6.77083 17.5C7.29166 15.7292 8.75 14.5833 10.4167 14.5833H14.5833C15.4167 14.5833 16.25 14.8958 16.9792 15.4167C17.3958 15.8333 18.125 15.7292 18.4375 15.3125C18.8542 14.8958 18.75 14.1667 18.3333 13.8542C17.2917 13.0208 15.9375 12.5 14.5833 12.5H10.4167C7.8125 12.5 5.52083 14.2708 4.79166 16.9792Z" fill="white"/>
<path d="M20.9375 17.6042C20.5208 17.1875 19.8958 17.1875 19.4792 17.6042L18.75 18.3333L18.0208 17.6042C17.6042 17.1875 16.9792 17.1875 16.5625 17.6042C16.1458 18.0208 16.1458 18.6458 16.5625 19.0625L17.2917 19.7917L16.5625 20.5208C16.1458 20.9375 16.1458 21.5625 16.5625 21.9792C16.7708 22.1875 17.0833 22.2917 17.2917 22.2917C17.5 22.2917 17.8125 22.1875 18.0208 21.9792L18.75 21.25L19.4792 21.9792C19.6875 22.1875 20 22.2917 20.2083 22.2917C20.4167 22.2917 20.7292 22.1875 20.9375 21.9792C21.3542 21.5625 21.3542 20.9375 20.9375 20.5208L20.2083 19.7917L20.9375 19.0625C21.3542 18.6458 21.3542 18.0208 20.9375 17.6042Z" fill="white"/>
</svg>
